<svg width="17" height="16" viewBox="0 0 17 16" fill="none" xmlns="http://www.w3.org/2000/svg">
<path d="M8.50002 10.6668C8.34425 10.6671 8.1933 10.6128 8.07335 10.5134L4.07335 7.1801C3.93721 7.06694 3.85159 6.90434 3.83534 6.72805C3.81909 6.55177 3.87353 6.37625 3.98669 6.2401C4.09985 6.10396 4.26245 6.01834 4.43874 6.00209C4.61502 5.98584 4.79054 6.04028 4.92669 6.15344L8.50002 9.1401L12.0734 6.2601C12.1415 6.20473 12.22 6.16337 12.3042 6.13842C12.3885 6.11346 12.4768 6.1054 12.5641 6.11469C12.6515 6.12398 12.7361 6.15045 12.8132 6.19257C12.8903 6.23468 12.9583 6.29162 13.0134 6.3601C13.0744 6.42865 13.1206 6.50907 13.1492 6.59632C13.1777 6.68357 13.1879 6.77577 13.1791 6.86714C13.1704 6.95852 13.1428 7.0471 13.0983 7.12734C13.0537 7.20757 12.993 7.27774 12.92 7.33344L8.92002 10.5534C8.79663 10.6371 8.64876 10.677 8.50002 10.6668Z" fill="#808080"/>
</svg>
