<svg width="17" height="16" viewBox="0 0 17 16" fill="none" xmlns="http://www.w3.org/2000/svg">
<path d="M8.02932 10.6668C7.87355 10.6671 7.72259 10.6128 7.60265 10.5134L3.60265 7.1801C3.46651 7.06694 3.38089 6.90434 3.36464 6.72805C3.34838 6.55177 3.40283 6.37625 3.51598 6.2401C3.62914 6.10396 3.79175 6.01834 3.96804 6.00209C4.14432 5.98584 4.31984 6.04028 4.45598 6.15344L8.02932 9.1401L11.6027 6.2601C11.6708 6.20473 11.7493 6.16337 11.8335 6.13842C11.9178 6.11346 12.0061 6.1054 12.0934 6.11469C12.1808 6.12398 12.2654 6.15045 12.3425 6.19257C12.4196 6.23468 12.4876 6.29162 12.5427 6.3601C12.6037 6.42865 12.6499 6.50907 12.6785 6.59632C12.707 6.68357 12.7172 6.77577 12.7084 6.86714C12.6997 6.95852 12.6721 7.0471 12.6276 7.12734C12.583 7.20757 12.5223 7.27774 12.4493 7.33344L8.44932 10.5534C8.32593 10.6371 8.17805 10.677 8.02932 10.6668Z" fill="#808080"/>
</svg>
