<svg width="24" height="25" viewBox="0 0 24 25" fill="none" xmlns="http://www.w3.org/2000/svg">
<g clip-path="url(#clip0_0_8806)">
<path fill-rule="evenodd" clip-rule="evenodd" d="M13 5.00871C11.4398 4.05601 9.56266 3.5 7.54545 3.5C5.22465 3.5 3.08924 4.23598 1.40858 5.46529L1 5.76414V22.5L2.77324 21.203C4.08079 20.2466 5.73849 19.6752 7.54545 19.6752C9.35241 19.6752 11.0101 20.2466 12.3177 21.203L13 21.7021L13.6823 21.203C14.9899 20.2466 16.6476 19.6752 18.4545 19.6752C20.2615 19.6752 21.9192 20.2466 23.2268 21.203L25 22.5V5.76414L24.5914 5.46529C22.9108 4.23598 20.7754 3.5 18.4545 3.5C16.4373 3.5 14.5602 4.05601 13 5.00871ZM3.18182 6.73959V18.6159C4.49664 18.0197 5.97881 17.6844 7.54545 17.6844C9.1121 17.6844 10.5943 18.0197 11.9091 18.6159V6.73959C10.6722 5.95214 9.16909 5.49079 7.54545 5.49079C5.92182 5.49079 4.41869 5.95214 3.18182 6.73959ZM14.0909 6.73959V18.6159C15.4057 18.0197 16.8879 17.6844 18.4545 17.6844C20.0212 17.6844 21.5034 18.0198 22.8182 18.6159V6.73959C21.5813 5.95214 20.0782 5.49079 18.4545 5.49079C16.8309 5.49079 15.3278 5.95214 14.0909 6.73959Z" fill="black"/>
</g>
<defs>
<clipPath id="clip0_0_8806">
<rect width="24" height="24" fill="white" transform="translate(0 0.5)"/>
</clipPath>
</defs>
</svg>
