<svg width="24" height="24" viewBox="0 0 24 24" fill="none" xmlns="http://www.w3.org/2000/svg">
<g clip-path="url(#clip0_168_5626)">
<path d="M11.9091 10V8H13C14.5102 8 15.8127 8.27785 16.9127 8.89834C18.0139 9.51955 18.8186 10.4314 19.4303 11.5528L19.9182 12.4472L17.9667 13.3416L17.4788 12.4472C16.9995 11.5686 16.4407 10.9804 15.7692 10.6017C15.0964 10.2222 14.217 10 13 10H11.9091Z" fill="black"/>
<path fill-rule="evenodd" clip-rule="evenodd" d="M15.5906 5.28366C15.6793 5.03717 15.7273 4.77372 15.7273 4.5C15.7273 3.11929 14.5062 2 13 2C11.4938 2 10.2727 3.11929 10.2727 4.5C10.2727 4.77372 10.3207 5.03717 10.4094 5.28366C5.63504 6.34959 2.09091 10.2954 2.09091 15V19H23.9091V15C23.9091 10.2954 20.365 6.34959 15.5906 5.28366ZM13 4C12.6988 4 12.4545 4.22386 12.4545 4.5C12.4545 4.77614 12.6988 5 13 5C13.3012 5 13.5455 4.77614 13.5455 4.5C13.5455 4.22386 13.3012 4 13 4ZM13 7C8.18006 7 4.27273 10.5817 4.27273 15V17H21.7273V15C21.7273 10.5817 17.8199 7 13 7Z" fill="black"/>
<path d="M1 20H25V22H1V20Z" fill="black"/>
</g>
<defs>
<clipPath id="clip0_168_5626">
<rect width="24" height="24" fill="white"/>
</clipPath>
</defs>
</svg>
