<svg width="24" height="19" viewBox="0 0 24 19" fill="none" xmlns="http://www.w3.org/2000/svg">
<path fill-rule="evenodd" clip-rule="evenodd" d="M9.79135 3C9.79135 2.724 10.0387 2.5 10.3435 2.5H13.6568C13.9616 2.5 14.209 2.724 14.209 3V4.5H9.79135V3ZM8.68689 16.5H15.3133V6.5H8.68689V16.5ZM20.8353 15.5C20.8353 16.051 20.3394 16.5 19.7309 16.5H17.5221V6.5H19.7309C20.3394 6.5 20.8353 6.949 20.8353 7.5V15.5ZM3.16486 7.5V15.5C3.16486 16.051 3.66073 16.5 4.26926 16.5H6.47806V6.5H4.26926C3.66073 6.5 3.16486 6.949 3.16486 7.5ZM19.7309 4.5H16.4177V3C16.4177 1.622 15.1785 0.5 13.6567 0.5H10.3435C8.8216 0.5 7.58246 1.622 7.58246 3V4.5H4.26926C2.44258 4.5 0.956055 5.846 0.956055 7.5V15.5C0.956055 17.154 2.44258 18.5 4.26926 18.5H19.7309C21.5576 18.5 23.0441 17.154 23.0441 15.5V7.5C23.0441 5.846 21.5576 4.5 19.7309 4.5Z" fill="black"/>
</svg>
