<svg width="87" height="78" viewBox="0 0 87 78" fill="none" xmlns="http://www.w3.org/2000/svg">
<g clip-path="url(#clip0_0_8774)">
<path d="M0.0737305 50V27.6H8.84173C10.4417 27.6 11.8817 27.8667 13.1617 28.4C14.463 28.9334 15.5724 29.7014 16.4897 30.704C17.407 31.7067 18.111 32.8907 18.6017 34.256C19.0924 35.6214 19.3377 37.136 19.3377 38.8C19.3377 40.464 19.0924 41.9893 18.6017 43.376C18.111 44.7413 17.407 45.9253 16.4897 46.928C15.5937 47.9093 14.495 48.6667 13.1937 49.2C11.8924 49.7333 10.4417 50 8.84173 50H0.0737305ZM3.52973 47.024L3.43373 46.672H8.68173C9.8124 46.672 10.815 46.4907 11.6897 46.128C12.5857 45.7653 13.3324 45.2533 13.9297 44.592C14.5484 43.9093 15.0177 43.0773 15.3377 42.096C15.6577 41.1147 15.8177 40.016 15.8177 38.8C15.8177 37.584 15.6577 36.496 15.3377 35.536C15.0177 34.5547 14.5484 33.7227 13.9297 33.04C13.311 32.3574 12.5644 31.8347 11.6897 31.472C10.815 31.1094 9.8124 30.928 8.68173 30.928H3.33773L3.52973 30.64V47.024ZM21.0502 50L29.7222 27.6H33.2422L41.8502 50H38.1702L33.0502 36.496C32.9862 36.3467 32.8582 35.984 32.6662 35.408C32.4955 34.832 32.2929 34.192 32.0582 33.488C31.8235 32.784 31.6102 32.144 31.4182 31.568C31.2262 30.9707 31.0982 30.5867 31.0342 30.416L31.7702 30.384C31.6422 30.7467 31.4822 31.2054 31.2902 31.76C31.1195 32.3147 30.9275 32.9014 30.7142 33.52C30.5222 34.1387 30.3302 34.7254 30.1382 35.28C29.9462 35.8134 29.7862 36.2614 29.6582 36.624L24.5702 50H21.0502ZM24.8902 44.432L26.1702 41.104H36.3462L37.8182 44.432H24.8902ZM52.7045 50.32C51.4885 50.32 50.3578 50.16 49.3125 49.84C48.2885 49.52 47.3498 49.04 46.4965 48.4C45.6645 47.7387 44.9178 46.928 44.2565 45.968L46.6245 43.248C47.6698 44.7413 48.6725 45.776 49.6325 46.352C50.5925 46.928 51.7338 47.216 53.0565 47.216C53.8671 47.216 54.6031 47.088 55.2645 46.832C55.9258 46.576 56.4485 46.224 56.8325 45.776C57.2165 45.328 57.4085 44.816 57.4085 44.24C57.4085 43.856 57.3445 43.4933 57.2165 43.152C57.0885 42.8107 56.8858 42.5013 56.6085 42.224C56.3525 41.9467 56.0111 41.6907 55.5845 41.456C55.1791 41.2213 54.6991 41.0187 54.1445 40.848C53.5898 40.656 52.9498 40.496 52.2245 40.368C51.0725 40.1333 50.0698 39.824 49.2165 39.44C48.3631 39.056 47.6485 38.576 47.0725 38C46.4965 37.424 46.0698 36.7734 45.7925 36.048C45.5151 35.3014 45.3765 34.4694 45.3765 33.552C45.3765 32.656 45.5685 31.824 45.9525 31.056C46.3578 30.288 46.9018 29.6267 47.5845 29.072C48.2885 28.496 49.1098 28.0587 50.0485 27.76C50.9871 27.44 52.0005 27.28 53.0885 27.28C54.2405 27.28 55.2965 27.4294 56.2565 27.728C57.2165 28.0267 58.0698 28.4747 58.8164 29.072C59.5631 29.648 60.1818 30.3627 60.6725 31.216L58.2405 33.616C57.8138 32.912 57.3338 32.3254 56.8005 31.856C56.2671 31.3654 55.6805 31.0027 55.0405 30.768C54.4005 30.512 53.7178 30.384 52.9925 30.384C52.1605 30.384 51.4351 30.512 50.8165 30.768C50.1978 31.024 49.7071 31.3867 49.3445 31.856C49.0031 32.304 48.8325 32.8374 48.8325 33.456C48.8325 33.904 48.9178 34.32 49.0885 34.704C49.2591 35.0667 49.5151 35.3974 49.8565 35.696C50.2191 35.9734 50.6991 36.2294 51.2965 36.464C51.8938 36.6774 52.6085 36.8694 53.4405 37.04C54.6138 37.296 55.6591 37.6267 56.5765 38.032C57.4938 38.416 58.2725 38.8747 58.9125 39.408C59.5525 39.9413 60.0325 40.5387 60.3525 41.2C60.6938 41.8613 60.8645 42.576 60.8645 43.344C60.8645 44.7733 60.5338 46.0107 59.8725 47.056C59.2111 48.1013 58.2725 48.912 57.0565 49.488C55.8405 50.0427 54.3898 50.32 52.7045 50.32ZM68.6412 43.216L68.4492 39.344L80.1932 27.6H84.7372L68.6412 43.216ZM65.7612 50V27.6H69.2172V50H65.7612ZM80.6092 50L72.0332 38.544L74.5932 36.336L84.9292 50H80.6092Z" fill="url(#paint0_linear_0_8774)"/>
</g>
<g clip-path="url(#clip1_0_8774)">
<path d="M12.1675 59V51.6H13.1975V54.83L13.0175 54.95C13.0841 54.7167 13.2141 54.5034 13.4075 54.31C13.6008 54.11 13.8308 53.95 14.0975 53.83C14.3641 53.7034 14.6375 53.64 14.9175 53.64C15.3175 53.64 15.6508 53.72 15.9175 53.88C16.1841 54.0334 16.3841 54.27 16.5175 54.59C16.6508 54.91 16.7175 55.3134 16.7175 55.8V59H15.6875V55.87C15.6875 55.57 15.6475 55.3234 15.5675 55.13C15.4875 54.93 15.3641 54.7867 15.1975 54.7C15.0308 54.6067 14.8241 54.5667 14.5775 54.58C14.3775 54.58 14.1941 54.6134 14.0275 54.68C13.8608 54.74 13.7141 54.8267 13.5875 54.94C13.4675 55.0534 13.3708 55.1867 13.2975 55.34C13.2308 55.4867 13.1975 55.6467 13.1975 55.82V59H12.6875C12.6008 59 12.5141 59 12.4275 59C12.3408 59 12.2541 59 12.1675 59ZM20.4747 59.1C19.9614 59.1 19.5014 58.9834 19.0947 58.75C18.6947 58.51 18.3781 58.1867 18.1447 57.78C17.9114 57.3667 17.7947 56.8967 17.7947 56.37C17.7947 55.8434 17.9114 55.3767 18.1447 54.97C18.3781 54.5567 18.6947 54.2334 19.0947 54C19.5014 53.76 19.9614 53.64 20.4747 53.64C20.9814 53.64 21.4347 53.76 21.8347 54C22.2414 54.2334 22.5614 54.5567 22.7947 54.97C23.0281 55.3767 23.1447 55.8434 23.1447 56.37C23.1447 56.8967 23.0281 57.3667 22.7947 57.78C22.5614 58.1867 22.2414 58.51 21.8347 58.75C21.4347 58.9834 20.9814 59.1 20.4747 59.1ZM20.4747 58.16C20.7881 58.16 21.0681 58.0834 21.3147 57.93C21.5614 57.77 21.7547 57.5567 21.8947 57.29C22.0347 57.0167 22.1014 56.71 22.0947 56.37C22.1014 56.0234 22.0347 55.7167 21.8947 55.45C21.7547 55.1767 21.5614 54.9634 21.3147 54.81C21.0681 54.6567 20.7881 54.58 20.4747 54.58C20.1614 54.58 19.8781 54.66 19.6247 54.82C19.3781 54.9734 19.1847 55.1867 19.0447 55.46C18.9047 55.7267 18.8381 56.03 18.8447 56.37C18.8381 56.71 18.9047 57.0167 19.0447 57.29C19.1847 57.5567 19.3781 57.77 19.6247 57.93C19.8781 58.0834 20.1614 58.16 20.4747 58.16ZM24.2471 59V53.75H25.2871V54.87L25.0971 54.99C25.1504 54.8167 25.2337 54.65 25.3471 54.49C25.4671 54.33 25.6104 54.19 25.7771 54.07C25.9504 53.9434 26.1337 53.8434 26.3271 53.77C26.5271 53.6967 26.7304 53.66 26.9371 53.66C27.2371 53.66 27.5004 53.71 27.7271 53.81C27.9537 53.91 28.1404 54.06 28.2871 54.26C28.4337 54.46 28.5404 54.71 28.6071 55.01L28.4471 54.97L28.5171 54.8C28.5904 54.6467 28.6904 54.5034 28.8171 54.37C28.9504 54.23 29.1004 54.1067 29.2671 54C29.4337 53.8934 29.6104 53.81 29.7971 53.75C29.9837 53.69 30.1671 53.66 30.3471 53.66C30.7404 53.66 31.0637 53.74 31.3171 53.9C31.5771 54.06 31.7704 54.3034 31.8971 54.63C32.0304 54.9567 32.0971 55.3634 32.0971 55.85V59H31.0571V55.91C31.0571 55.61 31.0171 55.3667 30.9371 55.18C30.8637 54.9867 30.7504 54.8434 30.5971 54.75C30.4437 54.6567 30.2471 54.61 30.0071 54.61C29.8204 54.61 29.6437 54.6434 29.4771 54.71C29.3171 54.77 29.1771 54.8567 29.0571 54.97C28.9371 55.0834 28.8437 55.2167 28.7771 55.37C28.7104 55.5167 28.6771 55.68 28.6771 55.86V59H27.6371V55.89C27.6371 55.6167 27.5971 55.3867 27.5171 55.2C27.4371 55.0067 27.3204 54.86 27.1671 54.76C27.0137 54.66 26.8271 54.61 26.6071 54.61C26.4204 54.61 26.2471 54.6434 26.0871 54.71C25.9271 54.77 25.7871 54.8567 25.6671 54.97C25.5471 55.0767 25.4537 55.2067 25.3871 55.36C25.3204 55.5067 25.2871 55.6667 25.2871 55.84V59H24.2471ZM35.9261 59.1C35.3861 59.1 34.9061 58.9867 34.4861 58.76C34.0727 58.5267 33.7461 58.21 33.5061 57.81C33.2727 57.41 33.1561 56.95 33.1561 56.43C33.1561 56.0167 33.2227 55.64 33.3561 55.3C33.4894 54.96 33.6727 54.6667 33.9061 54.42C34.1461 54.1667 34.4294 53.9734 34.7561 53.84C35.0894 53.7 35.4494 53.63 35.8361 53.63C36.1761 53.63 36.4927 53.6967 36.7861 53.83C37.0794 53.9567 37.3327 54.1334 37.5461 54.36C37.7661 54.5867 37.9327 54.8567 38.0461 55.17C38.1661 55.4767 38.2227 55.8134 38.2161 56.18L38.2061 56.62H33.9161L33.6861 55.8H37.3161L37.1661 55.97V55.73C37.1461 55.51 37.0727 55.3134 36.9461 55.14C36.8194 54.9667 36.6594 54.83 36.4661 54.73C36.2727 54.63 36.0627 54.58 35.8361 54.58C35.4761 54.58 35.1727 54.65 34.9261 54.79C34.6794 54.9234 34.4927 55.1234 34.3661 55.39C34.2394 55.65 34.1761 55.9734 34.1761 56.36C34.1761 56.7267 34.2527 57.0467 34.4061 57.32C34.5594 57.5867 34.7761 57.7934 35.0561 57.94C35.3361 58.0867 35.6594 58.16 36.0261 58.16C36.2861 58.16 36.5261 58.1167 36.7461 58.03C36.9727 57.9434 37.2161 57.7867 37.4761 57.56L37.9961 58.29C37.8361 58.45 37.6394 58.59 37.4061 58.71C37.1794 58.83 36.9361 58.9267 36.6761 59C36.4227 59.0667 36.1727 59.1 35.9261 59.1ZM41.5654 59.1C41.0788 59.1 40.6421 58.98 40.2554 58.74C39.8754 58.5 39.5721 58.1734 39.3454 57.76C39.1254 57.3467 39.0154 56.8834 39.0154 56.37C39.0154 55.8567 39.1254 55.3934 39.3454 54.98C39.5721 54.5667 39.8754 54.24 40.2554 54C40.6421 53.76 41.0788 53.64 41.5654 53.64C42.0321 53.64 42.4554 53.7367 42.8354 53.93C43.2221 54.1167 43.5154 54.3734 43.7154 54.7L43.1454 55.4C43.0388 55.2467 42.9021 55.1067 42.7354 54.98C42.5688 54.8534 42.3921 54.7534 42.2054 54.68C42.0188 54.6067 41.8388 54.57 41.6654 54.57C41.3454 54.57 41.0588 54.65 40.8054 54.81C40.5588 54.9634 40.3621 55.1767 40.2154 55.45C40.0688 55.7234 39.9954 56.03 39.9954 56.37C39.9954 56.71 40.0721 57.0167 40.2254 57.29C40.3788 57.5567 40.5821 57.77 40.8354 57.93C41.0888 58.09 41.3688 58.17 41.6754 58.17C41.8554 58.17 42.0288 58.14 42.1954 58.08C42.3688 58.02 42.5354 57.93 42.6954 57.81C42.8554 57.69 43.0054 57.5434 43.1454 57.37L43.7154 58.07C43.5021 58.37 43.1954 58.6167 42.7954 58.81C42.4021 59.0034 41.9921 59.1 41.5654 59.1ZM47.047 59.1C46.5337 59.1 46.0737 58.9834 45.667 58.75C45.267 58.51 44.9503 58.1867 44.717 57.78C44.4837 57.3667 44.367 56.8967 44.367 56.37C44.367 55.8434 44.4837 55.3767 44.717 54.97C44.9503 54.5567 45.267 54.2334 45.667 54C46.0737 53.76 46.5337 53.64 47.047 53.64C47.5537 53.64 48.007 53.76 48.407 54C48.8137 54.2334 49.1337 54.5567 49.367 54.97C49.6003 55.3767 49.717 55.8434 49.717 56.37C49.717 56.8967 49.6003 57.3667 49.367 57.78C49.1337 58.1867 48.8137 58.51 48.407 58.75C48.007 58.9834 47.5537 59.1 47.047 59.1ZM47.047 58.16C47.3603 58.16 47.6403 58.0834 47.887 57.93C48.1337 57.77 48.327 57.5567 48.467 57.29C48.607 57.0167 48.6737 56.71 48.667 56.37C48.6737 56.0234 48.607 55.7167 48.467 55.45C48.327 55.1767 48.1337 54.9634 47.887 54.81C47.6403 54.6567 47.3603 54.58 47.047 54.58C46.7337 54.58 46.4503 54.66 46.197 54.82C45.9503 54.9734 45.757 55.1867 45.617 55.46C45.477 55.7267 45.4103 56.03 45.417 56.37C45.4103 56.71 45.477 57.0167 45.617 57.29C45.757 57.5567 45.9503 57.77 46.197 57.93C46.4503 58.0834 46.7337 58.16 47.047 58.16ZM50.8193 59V53.75H51.8593V54.87L51.6693 54.99C51.7227 54.8167 51.806 54.65 51.9193 54.49C52.0393 54.33 52.1827 54.19 52.3493 54.07C52.5227 53.9434 52.706 53.8434 52.8993 53.77C53.0993 53.6967 53.3027 53.66 53.5093 53.66C53.8093 53.66 54.0727 53.71 54.2993 53.81C54.526 53.91 54.7127 54.06 54.8593 54.26C55.006 54.46 55.1127 54.71 55.1793 55.01L55.0193 54.97L55.0893 54.8C55.1627 54.6467 55.2627 54.5034 55.3893 54.37C55.5227 54.23 55.6727 54.1067 55.8393 54C56.006 53.8934 56.1827 53.81 56.3693 53.75C56.556 53.69 56.7393 53.66 56.9193 53.66C57.3127 53.66 57.636 53.74 57.8893 53.9C58.1493 54.06 58.3427 54.3034 58.4693 54.63C58.6027 54.9567 58.6693 55.3634 58.6693 55.85V59H57.6293V55.91C57.6293 55.61 57.5893 55.3667 57.5093 55.18C57.436 54.9867 57.3227 54.8434 57.1693 54.75C57.016 54.6567 56.8193 54.61 56.5793 54.61C56.3927 54.61 56.216 54.6434 56.0493 54.71C55.8893 54.77 55.7493 54.8567 55.6293 54.97C55.5093 55.0834 55.416 55.2167 55.3493 55.37C55.2827 55.5167 55.2493 55.68 55.2493 55.86V59H54.2093V55.89C54.2093 55.6167 54.1693 55.3867 54.0893 55.2C54.0093 55.0067 53.8927 54.86 53.7393 54.76C53.586 54.66 53.3993 54.61 53.1793 54.61C52.9927 54.61 52.8193 54.6434 52.6593 54.71C52.4993 54.77 52.3593 54.8567 52.2393 54.97C52.1193 55.0767 52.026 55.2067 51.9593 55.36C51.8927 55.5067 51.8593 55.6667 51.8593 55.84V59H50.8193ZM60.2183 59V53.75H61.2483V59H60.2183ZM60.7183 52.59C60.4983 52.59 60.3283 52.5334 60.2083 52.42C60.0883 52.3067 60.0283 52.1467 60.0283 51.94C60.0283 51.7467 60.0883 51.59 60.2083 51.47C60.335 51.35 60.505 51.29 60.7183 51.29C60.9383 51.29 61.1083 51.3467 61.2283 51.46C61.3483 51.5734 61.4083 51.7334 61.4083 51.94C61.4083 52.1334 61.345 52.29 61.2183 52.41C61.0983 52.53 60.9317 52.59 60.7183 52.59ZM62.8315 59V53.75H63.8615V54.83L63.6815 54.95C63.7482 54.7167 63.8782 54.5034 64.0715 54.31C64.2649 54.11 64.4949 53.95 64.7615 53.83C65.0282 53.7034 65.3015 53.64 65.5815 53.64C65.9815 53.64 66.3149 53.72 66.5815 53.88C66.8482 54.0334 67.0482 54.27 67.1815 54.59C67.3149 54.91 67.3815 55.3134 67.3815 55.8V59H66.3515V55.87C66.3515 55.57 66.3115 55.3234 66.2315 55.13C66.1515 54.93 66.0282 54.7867 65.8615 54.7C65.6949 54.6067 65.4882 54.5667 65.2415 54.58C65.0415 54.58 64.8582 54.6134 64.6915 54.68C64.5249 54.74 64.3782 54.8267 64.2515 54.94C64.1315 55.0534 64.0349 55.1867 63.9615 55.34C63.8949 55.4867 63.8615 55.6467 63.8615 55.82V59H63.3515C63.2649 59 63.1782 59 63.0915 59C63.0049 59 62.9182 59 62.8315 59ZM71.1288 61.3C70.7555 61.3 70.3821 61.24 70.0088 61.12C69.6421 61.0067 69.3455 60.8567 69.1188 60.67L69.4988 59.87C69.6321 59.97 69.7888 60.0567 69.9688 60.13C70.1488 60.21 70.3388 60.27 70.5388 60.31C70.7388 60.3567 70.9355 60.38 71.1288 60.38C71.4955 60.38 71.8021 60.32 72.0488 60.2C72.2955 60.08 72.4821 59.9034 72.6088 59.67C72.7355 59.4367 72.7988 59.1467 72.7988 58.8V57.79L72.9088 57.86C72.8755 58.0667 72.7655 58.2667 72.5788 58.46C72.3988 58.6467 72.1721 58.8 71.8988 58.92C71.6255 59.04 71.3455 59.1 71.0588 59.1C70.5588 59.1 70.1121 58.9834 69.7188 58.75C69.3321 58.51 69.0255 58.1867 68.7988 57.78C68.5721 57.3667 68.4588 56.8967 68.4588 56.37C68.4588 55.8434 68.5688 55.3767 68.7888 54.97C69.0155 54.5567 69.3221 54.2334 69.7088 54C70.1021 53.76 70.5421 53.64 71.0288 53.64C71.2288 53.64 71.4221 53.6667 71.6088 53.72C71.7955 53.7667 71.9688 53.8367 72.1288 53.93C72.2888 54.0167 72.4321 54.1134 72.5588 54.22C72.6855 54.3267 72.7888 54.44 72.8688 54.56C72.9488 54.68 72.9988 54.7934 73.0188 54.9L72.7988 54.98V53.75H73.8288V58.68C73.8288 59.1 73.7655 59.47 73.6388 59.79C73.5188 60.1167 73.3421 60.39 73.1088 60.61C72.8755 60.8367 72.5921 61.0067 72.2588 61.12C71.9255 61.24 71.5488 61.3 71.1288 61.3ZM71.1688 58.15C71.4955 58.15 71.7855 58.0734 72.0388 57.92C72.2921 57.7667 72.4888 57.5567 72.6288 57.29C72.7688 57.0234 72.8388 56.7167 72.8388 56.37C72.8388 56.0234 72.7655 55.7167 72.6188 55.45C72.4788 55.1767 72.2821 54.9634 72.0288 54.81C71.7821 54.6567 71.4955 54.58 71.1688 54.58C70.8488 54.58 70.5621 54.66 70.3088 54.82C70.0621 54.9734 69.8655 55.1867 69.7188 55.46C69.5788 55.7267 69.5088 56.03 69.5088 56.37C69.5088 56.71 69.5788 57.0167 69.7188 57.29C69.8655 57.5567 70.0621 57.7667 70.3088 57.92C70.5621 58.0734 70.8488 58.15 71.1688 58.15Z" fill="url(#paint1_radial_0_8774)"/>
</g>
<defs>
<linearGradient id="paint0_linear_0_8774" x1="41.5002" y1="24" x2="41.5002" y2="52" gradientUnits="userSpaceOnUse">
<stop offset="0.0416667" stop-color="#470000"/>
<stop offset="0.21875" stop-color="#690000"/>
<stop offset="0.411458" stop-color="#8B0000"/>
<stop offset="0.614583" stop-color="#AD0303"/>
<stop offset="0.802083" stop-color="#CF1010"/>
<stop offset="1" stop-color="#F12121"/>
</linearGradient>
<radialGradient id="paint1_radial_0_8774" cx="0" cy="0" r="1" gradientUnits="userSpaceOnUse" gradientTransform="translate(43.0002 55) rotate(90) scale(14 32)">
<stop offset="0.682292" stop-color="#FF5454"/>
<stop offset="0.734375" stop-color="#FF8686"/>
</radialGradient>
<clipPath id="clip0_0_8774">
<rect width="85" height="24" fill="white" transform="translate(0 27)"/>
</clipPath>
<clipPath id="clip1_0_8774">
<rect width="62" height="11" fill="white" transform="translate(12 51)"/>
</clipPath>
</defs>
</svg>
