<svg width="285" height="117" viewBox="0 0 285 117" fill="none" xmlns="http://www.w3.org/2000/svg">
<g clip-path="url(#clip0_0_8842)">
<path d="M14.7207 68.9998V1.79985H41.0247C45.8247 1.79985 50.1447 2.59985 53.9847 4.19985C57.8887 5.79985 61.2167 8.10385 63.9687 11.1118C66.7207 14.1198 68.8327 17.6718 70.3047 21.7678C71.7767 25.8638 72.5127 30.4078 72.5127 35.3998C72.5127 40.3918 71.7767 44.9678 70.3047 49.1278C68.8327 53.2238 66.7207 56.7758 63.9687 59.7838C61.2807 62.7278 57.9847 64.9998 54.0807 66.5998C50.1767 68.1998 45.8247 68.9998 41.0247 68.9998H14.7207ZM25.0887 60.0718L24.8007 59.0158H40.5447C43.9367 59.0158 46.9447 58.4718 49.5687 57.3838C52.2567 56.2958 54.4967 54.7598 56.2887 52.7758C58.1447 50.7278 59.5527 48.2318 60.5127 45.2878C61.4727 42.3438 61.9527 39.0478 61.9527 35.3998C61.9527 31.7518 61.4727 28.4878 60.5127 25.6078C59.5527 22.6638 58.1447 20.1678 56.2887 18.1198C54.4327 16.0718 52.1927 14.5038 49.5687 13.4158C46.9447 12.3278 43.9367 11.7838 40.5447 11.7838H24.5127L25.0887 10.9198V60.0718ZM77.6502 68.9998L103.666 1.79985H114.226L140.05 68.9998H129.01L113.65 28.4878C113.458 28.0398 113.074 26.9518 112.498 25.2238C111.986 23.4958 111.378 21.5758 110.674 19.4638C109.97 17.3518 109.33 15.4318 108.754 13.7038C108.178 11.9118 107.794 10.7598 107.602 10.2478L109.81 10.1518C109.426 11.2398 108.946 12.6158 108.37 14.2798C107.858 15.9438 107.282 17.7038 106.642 19.5598C106.066 21.4158 105.49 23.1758 104.914 24.8398C104.338 26.4398 103.858 27.7838 103.474 28.8718L88.2102 68.9998H77.6502ZM89.1702 52.2958L93.0102 42.3118H123.538L127.954 52.2958H89.1702ZM172.613 69.9598C168.965 69.9598 165.573 69.4798 162.437 68.5198C159.365 67.5598 156.549 66.1198 153.989 64.1998C151.493 62.2158 149.253 59.7838 147.269 56.9038L154.373 48.7438C157.509 53.2238 160.517 56.3278 163.397 58.0558C166.277 59.7838 169.701 60.6478 173.669 60.6478C176.101 60.6478 178.309 60.2638 180.293 59.4958C182.277 58.7278 183.845 57.6718 184.997 56.3278C186.149 54.9838 186.725 53.4478 186.725 51.7198C186.725 50.5678 186.533 49.4798 186.149 48.4558C185.765 47.4318 185.157 46.5038 184.325 45.6718C183.557 44.8398 182.533 44.0718 181.253 43.3678C180.037 42.6638 178.597 42.0558 176.933 41.5438C175.269 40.9678 173.349 40.4878 171.173 40.1038C167.717 39.3998 164.709 38.4718 162.149 37.3198C159.589 36.1678 157.445 34.7278 155.717 32.9998C153.989 31.2718 152.709 29.3198 151.877 27.1438C151.045 24.9038 150.629 22.4078 150.629 19.6558C150.629 16.9678 151.205 14.4718 152.357 12.1678C153.573 9.86385 155.205 7.87985 157.253 6.21585C159.365 4.48785 161.829 3.17584 164.645 2.27984C167.461 1.31985 170.501 0.839844 173.765 0.839844C177.221 0.839844 180.389 1.28785 183.269 2.18385C186.149 3.07985 188.709 4.42385 190.949 6.21585C193.189 7.94385 195.045 10.0878 196.517 12.6478L189.221 19.8478C187.941 17.7358 186.501 15.9758 184.901 14.5678C183.301 13.0958 181.541 12.0078 179.621 11.3038C177.701 10.5358 175.653 10.1518 173.477 10.1518C170.981 10.1518 168.805 10.5358 166.949 11.3038C165.093 12.0718 163.621 13.1598 162.533 14.5678C161.509 15.9118 160.997 17.5118 160.997 19.3678C160.997 20.7118 161.253 21.9598 161.765 23.1118C162.277 24.1998 163.045 25.1918 164.069 26.0878C165.157 26.9198 166.597 27.6878 168.389 28.3918C170.181 29.0318 172.325 29.6078 174.821 30.1198C178.341 30.8878 181.477 31.8798 184.229 33.0958C186.981 34.2478 189.317 35.6238 191.237 37.2238C193.157 38.8238 194.597 40.6158 195.557 42.5998C196.581 44.5838 197.093 46.7278 197.093 49.0318C197.093 53.3198 196.101 57.0318 194.117 60.1678C192.133 63.3038 189.317 65.7358 185.669 67.4638C182.021 69.1278 177.669 69.9598 172.613 69.9598ZM220.423 48.6478L219.847 37.0318L255.079 1.79985H268.711L220.423 48.6478ZM211.783 68.9998V1.79985H222.151V68.9998H211.783ZM256.327 68.9998L230.599 34.6318L238.279 28.0078L269.287 68.9998H256.327Z" fill="url(#paint0_linear_0_8842)"/>
</g>
<g clip-path="url(#clip1_0_8842)">
<path d="M68.0015 98.0001V80.2401H70.4735V87.9921L70.0415 88.2801C70.2015 87.7201 70.5135 87.2081 70.9775 86.7441C71.4415 86.2641 71.9935 85.8801 72.6335 85.5921C73.2735 85.2881 73.9295 85.1361 74.6015 85.1361C75.5615 85.1361 76.3615 85.3281 77.0015 85.7121C77.6415 86.0801 78.1214 86.6481 78.4414 87.4161C78.7614 88.1841 78.9214 89.1521 78.9214 90.3201V98.0001H76.4495V90.4881C76.4495 89.7681 76.3535 89.1761 76.1615 88.7121C75.9695 88.2321 75.6735 87.8881 75.2735 87.6801C74.8735 87.4561 74.3775 87.3601 73.7855 87.3921C73.3055 87.3921 72.8655 87.4721 72.4655 87.6321C72.0655 87.7761 71.7135 87.9841 71.4095 88.2561C71.1215 88.5281 70.8895 88.8481 70.7135 89.2161C70.5535 89.5681 70.4735 89.9521 70.4735 90.3681V98.0001H69.2495C69.0415 98.0001 68.8335 98.0001 68.6255 98.0001C68.4175 98.0001 68.2095 98.0001 68.0015 98.0001ZM87.9389 98.2401C86.7069 98.2401 85.6029 97.9601 84.6269 97.4001C83.6669 96.8241 82.9069 96.0481 82.3469 95.0721C81.7869 94.0801 81.5069 92.9521 81.5069 91.6881C81.5069 90.4241 81.7869 89.3041 82.3469 88.3281C82.9069 87.3361 83.6669 86.5601 84.6269 86.0001C85.6029 85.4241 86.7069 85.1361 87.9389 85.1361C89.1549 85.1361 90.2429 85.4241 91.2029 86.0001C92.1789 86.5601 92.9469 87.3361 93.5069 88.3281C94.0669 89.3041 94.3469 90.4241 94.3469 91.6881C94.3469 92.9521 94.0669 94.0801 93.5069 95.0721C92.9469 96.0481 92.1789 96.8241 91.2029 97.4001C90.2429 97.9601 89.1549 98.2401 87.9389 98.2401ZM87.9389 95.9841C88.6909 95.9841 89.3629 95.8001 89.9549 95.4321C90.5469 95.0481 91.0109 94.5361 91.3469 93.8961C91.6829 93.2401 91.8429 92.5041 91.8269 91.6881C91.8429 90.8561 91.6829 90.1201 91.3469 89.4801C91.0109 88.8241 90.5469 88.3121 89.9549 87.9441C89.3629 87.5761 88.6909 87.3921 87.9389 87.3921C87.1869 87.3921 86.5069 87.5841 85.8989 87.9681C85.3069 88.3361 84.8429 88.8481 84.5069 89.5041C84.1709 90.1441 84.0109 90.8721 84.0269 91.6881C84.0109 92.5041 84.1709 93.2401 84.5069 93.8961C84.8429 94.5361 85.3069 95.0481 85.8989 95.4321C86.5069 95.8001 87.1869 95.9841 87.9389 95.9841ZM96.9925 98.0001V85.4001H99.4885V88.0881L99.0325 88.3761C99.1605 87.9601 99.3605 87.5601 99.6325 87.1761C99.9205 86.7921 100.265 86.4561 100.665 86.1681C101.081 85.8641 101.521 85.6241 101.985 85.4481C102.465 85.2721 102.953 85.1841 103.449 85.1841C104.169 85.1841 104.801 85.3041 105.345 85.5441C105.889 85.7841 106.337 86.1441 106.689 86.6241C107.041 87.1041 107.297 87.7041 107.457 88.4241L107.073 88.3281L107.241 87.9201C107.417 87.5521 107.657 87.2081 107.961 86.8881C108.281 86.5521 108.641 86.2561 109.041 86.0001C109.441 85.7441 109.865 85.5441 110.313 85.4001C110.761 85.2561 111.201 85.1841 111.633 85.1841C112.577 85.1841 113.353 85.3761 113.961 85.7601C114.585 86.1441 115.049 86.7281 115.353 87.5121C115.673 88.2961 115.833 89.2721 115.833 90.4401V98.0001H113.337V90.5841C113.337 89.8641 113.241 89.2801 113.049 88.8321C112.873 88.3681 112.601 88.0241 112.233 87.8001C111.865 87.5761 111.393 87.4641 110.817 87.4641C110.369 87.4641 109.945 87.5441 109.545 87.7041C109.161 87.8481 108.825 88.0561 108.537 88.3281C108.249 88.6001 108.025 88.9201 107.865 89.2881C107.705 89.6401 107.625 90.0321 107.625 90.4641V98.0001H105.129V90.5361C105.129 89.8801 105.033 89.3281 104.841 88.8801C104.649 88.4161 104.369 88.0641 104.001 87.8241C103.633 87.5841 103.185 87.4641 102.657 87.4641C102.209 87.4641 101.793 87.5441 101.409 87.7041C101.025 87.8481 100.689 88.0561 100.401 88.3281C100.113 88.5841 99.8885 88.8961 99.7285 89.2641C99.5685 89.6161 99.4885 90.0001 99.4885 90.4161V98.0001H96.9925ZM125.022 98.2401C123.726 98.2401 122.574 97.9681 121.566 97.4241C120.574 96.8641 119.79 96.1041 119.214 95.1441C118.654 94.1841 118.374 93.0801 118.374 91.8321C118.374 90.8401 118.534 89.9361 118.854 89.1201C119.174 88.3041 119.614 87.6001 120.174 87.0081C120.75 86.4001 121.43 85.9361 122.214 85.6161C123.014 85.2801 123.878 85.1121 124.806 85.1121C125.622 85.1121 126.382 85.2721 127.086 85.5921C127.79 85.8961 128.398 86.3201 128.91 86.8641C129.438 87.4081 129.838 88.0561 130.11 88.8081C130.398 89.5441 130.534 90.3521 130.518 91.2321L130.494 92.2881H120.198L119.646 90.3201H128.358L127.998 90.7281V90.1521C127.95 89.6241 127.774 89.1521 127.47 88.7361C127.166 88.3201 126.782 87.9921 126.318 87.7521C125.854 87.5121 125.35 87.3921 124.806 87.3921C123.942 87.3921 123.214 87.5601 122.622 87.8961C122.03 88.2161 121.582 88.6961 121.278 89.3361C120.974 89.9601 120.822 90.7361 120.822 91.6641C120.822 92.5441 121.006 93.3121 121.374 93.9681C121.742 94.6081 122.262 95.1041 122.934 95.4561C123.606 95.8081 124.382 95.9841 125.262 95.9841C125.886 95.9841 126.462 95.8801 126.99 95.6721C127.534 95.4641 128.118 95.0881 128.742 94.5441L129.99 96.2961C129.606 96.6801 129.134 97.0161 128.574 97.3041C128.03 97.5921 127.446 97.8241 126.822 98.0001C126.214 98.1601 125.614 98.2401 125.022 98.2401ZM138.557 98.2401C137.389 98.2401 136.341 97.9521 135.413 97.3761C134.501 96.8001 133.773 96.0161 133.229 95.0241C132.701 94.0321 132.437 92.9201 132.437 91.6881C132.437 90.4561 132.701 89.3441 133.229 88.3521C133.773 87.3601 134.501 86.5761 135.413 86.0001C136.341 85.4241 137.389 85.1361 138.557 85.1361C139.677 85.1361 140.693 85.3681 141.605 85.8321C142.533 86.2801 143.237 86.8961 143.717 87.6801L142.349 89.3601C142.093 88.9921 141.765 88.6561 141.365 88.3521C140.965 88.0481 140.541 87.8081 140.093 87.6321C139.645 87.4561 139.213 87.3681 138.797 87.3681C138.029 87.3681 137.341 87.5601 136.733 87.9441C136.141 88.3121 135.669 88.8241 135.317 89.4801C134.965 90.1361 134.789 90.8721 134.789 91.6881C134.789 92.5041 134.973 93.2401 135.341 93.8961C135.709 94.5361 136.197 95.0481 136.805 95.4321C137.413 95.8161 138.085 96.0081 138.821 96.0081C139.253 96.0081 139.669 95.9361 140.069 95.7921C140.485 95.6481 140.885 95.4321 141.269 95.1441C141.653 94.8561 142.013 94.5041 142.349 94.0881L143.717 95.7681C143.205 96.4881 142.469 97.0801 141.509 97.5441C140.565 98.0081 139.581 98.2401 138.557 98.2401ZM151.712 98.2401C150.48 98.2401 149.376 97.9601 148.4 97.4001C147.44 96.8241 146.68 96.0481 146.12 95.0721C145.56 94.0801 145.28 92.9521 145.28 91.6881C145.28 90.4241 145.56 89.3041 146.12 88.3281C146.68 87.3361 147.44 86.5601 148.4 86.0001C149.376 85.4241 150.48 85.1361 151.712 85.1361C152.928 85.1361 154.016 85.4241 154.976 86.0001C155.952 86.5601 156.72 87.3361 157.28 88.3281C157.84 89.3041 158.12 90.4241 158.12 91.6881C158.12 92.9521 157.84 94.0801 157.28 95.0721C156.72 96.0481 155.952 96.8241 154.976 97.4001C154.016 97.9601 152.928 98.2401 151.712 98.2401ZM151.712 95.9841C152.464 95.9841 153.136 95.8001 153.728 95.4321C154.32 95.0481 154.784 94.5361 155.12 93.8961C155.456 93.2401 155.616 92.5041 155.6 91.6881C155.616 90.8561 155.456 90.1201 155.12 89.4801C154.784 88.8241 154.32 88.3121 153.728 87.9441C153.136 87.5761 152.464 87.3921 151.712 87.3921C150.96 87.3921 150.28 87.5841 149.672 87.9681C149.08 88.3361 148.616 88.8481 148.28 89.5041C147.944 90.1441 147.784 90.8721 147.8 91.6881C147.784 92.5041 147.944 93.2401 148.28 93.8961C148.616 94.5361 149.08 95.0481 149.672 95.4321C150.28 95.8001 150.96 95.9841 151.712 95.9841ZM160.766 98.0001V85.4001H163.262V88.0881L162.806 88.3761C162.934 87.9601 163.134 87.5601 163.406 87.1761C163.694 86.7921 164.038 86.4561 164.438 86.1681C164.854 85.8641 165.294 85.6241 165.758 85.4481C166.238 85.2721 166.726 85.1841 167.222 85.1841C167.942 85.1841 168.574 85.3041 169.118 85.5441C169.662 85.7841 170.11 86.1441 170.462 86.6241C170.814 87.1041 171.07 87.7041 171.23 88.4241L170.846 88.3281L171.014 87.9201C171.19 87.5521 171.43 87.2081 171.734 86.8881C172.054 86.5521 172.414 86.2561 172.814 86.0001C173.214 85.7441 173.638 85.5441 174.086 85.4001C174.534 85.2561 174.974 85.1841 175.406 85.1841C176.35 85.1841 177.126 85.3761 177.734 85.7601C178.358 86.1441 178.822 86.7281 179.126 87.5121C179.446 88.2961 179.606 89.2721 179.606 90.4401V98.0001H177.11V90.5841C177.11 89.8641 177.014 89.2801 176.822 88.8321C176.646 88.3681 176.374 88.0241 176.006 87.8001C175.638 87.5761 175.166 87.4641 174.59 87.4641C174.142 87.4641 173.718 87.5441 173.318 87.7041C172.934 87.8481 172.598 88.0561 172.31 88.3281C172.022 88.6001 171.798 88.9201 171.638 89.2881C171.478 89.6401 171.398 90.0321 171.398 90.4641V98.0001H168.902V90.5361C168.902 89.8801 168.806 89.3281 168.614 88.8801C168.422 88.4161 168.142 88.0641 167.774 87.8241C167.406 87.5841 166.958 87.4641 166.43 87.4641C165.982 87.4641 165.566 87.5441 165.182 87.7041C164.798 87.8481 164.462 88.0561 164.174 88.3281C163.886 88.5841 163.662 88.8961 163.502 89.2641C163.342 89.6161 163.262 90.0001 163.262 90.4161V98.0001H160.766ZM183.324 98.0001V85.4001H185.796V98.0001H183.324ZM184.524 82.6161C183.996 82.6161 183.588 82.4801 183.3 82.2081C183.012 81.9361 182.868 81.5521 182.868 81.0561C182.868 80.5921 183.012 80.2161 183.3 79.9281C183.604 79.6401 184.012 79.4961 184.524 79.4961C185.052 79.4961 185.46 79.6321 185.748 79.9041C186.036 80.1761 186.18 80.5601 186.18 81.0561C186.18 81.5201 186.028 81.8961 185.724 82.1841C185.436 82.4721 185.036 82.6161 184.524 82.6161ZM189.595 98.0001V85.4001H192.067V87.9921L191.635 88.2801C191.795 87.7201 192.107 87.2081 192.571 86.7441C193.035 86.2641 193.587 85.8801 194.227 85.5921C194.867 85.2881 195.523 85.1361 196.195 85.1361C197.155 85.1361 197.955 85.3281 198.595 85.7121C199.235 86.0801 199.715 86.6481 200.035 87.4161C200.355 88.1841 200.515 89.1521 200.515 90.3201V98.0001H198.043V90.4881C198.043 89.7681 197.947 89.1761 197.755 88.7121C197.563 88.2321 197.267 87.8881 196.867 87.6801C196.467 87.4561 195.971 87.3601 195.379 87.3921C194.899 87.3921 194.459 87.4721 194.059 87.6321C193.659 87.7761 193.307 87.9841 193.003 88.2561C192.715 88.5281 192.483 88.8481 192.307 89.2161C192.147 89.5681 192.067 89.9521 192.067 90.3681V98.0001H190.843C190.635 98.0001 190.427 98.0001 190.219 98.0001C190.011 98.0001 189.803 98.0001 189.595 98.0001ZM209.509 103.52C208.613 103.52 207.717 103.376 206.821 103.088C205.941 102.816 205.229 102.456 204.685 102.008L205.597 100.088C205.917 100.328 206.293 100.536 206.725 100.712C207.157 100.904 207.613 101.048 208.093 101.144C208.573 101.256 209.045 101.312 209.509 101.312C210.389 101.312 211.125 101.168 211.717 100.88C212.309 100.592 212.757 100.168 213.061 99.6081C213.365 99.0481 213.517 98.3521 213.517 97.5201V95.0961L213.781 95.2641C213.701 95.7601 213.437 96.2401 212.989 96.7041C212.557 97.1521 212.013 97.5201 211.357 97.8081C210.701 98.0961 210.029 98.2401 209.341 98.2401C208.141 98.2401 207.069 97.9601 206.125 97.4001C205.197 96.8241 204.461 96.0481 203.917 95.0721C203.373 94.0801 203.101 92.9521 203.101 91.6881C203.101 90.4241 203.365 89.3041 203.893 88.3281C204.437 87.3361 205.173 86.5601 206.101 86.0001C207.045 85.4241 208.101 85.1361 209.269 85.1361C209.749 85.1361 210.213 85.2001 210.661 85.3281C211.109 85.4401 211.525 85.6081 211.909 85.8321C212.293 86.0401 212.637 86.2721 212.941 86.5281C213.245 86.7841 213.493 87.0561 213.685 87.3441C213.877 87.6321 213.997 87.9041 214.045 88.1601L213.517 88.3521V85.4001H215.989V97.2321C215.989 98.2401 215.837 99.1281 215.533 99.8961C215.245 100.68 214.821 101.336 214.261 101.864C213.701 102.408 213.021 102.816 212.221 103.088C211.421 103.376 210.517 103.52 209.509 103.52ZM209.605 95.9601C210.389 95.9601 211.085 95.7761 211.693 95.4081C212.301 95.0401 212.773 94.5361 213.109 93.8961C213.445 93.2561 213.613 92.5201 213.613 91.6881C213.613 90.8561 213.437 90.1201 213.085 89.4801C212.749 88.8241 212.277 88.3121 211.669 87.9441C211.077 87.5761 210.389 87.3921 209.605 87.3921C208.837 87.3921 208.149 87.5841 207.541 87.9681C206.949 88.3361 206.477 88.8481 206.125 89.5041C205.789 90.1441 205.621 90.8721 205.621 91.6881C205.621 92.5041 205.789 93.2401 206.125 93.8961C206.477 94.5361 206.949 95.0401 207.541 95.4081C208.149 95.7761 208.837 95.9601 209.605 95.9601Z" fill="url(#paint1_radial_0_8842)"/>
</g>
<defs>
<linearGradient id="paint0_linear_0_8842" x1="139" y1="-9.00015" x2="139" y2="73.9998" gradientUnits="userSpaceOnUse">
<stop offset="0.0416667" stop-color="#690000"/>
<stop offset="0.21875" stop-color="#8B0000"/>
<stop offset="0.411458" stop-color="#AD0303"/>
<stop offset="0.614583" stop-color="#CF1010"/>
<stop offset="0.802083" stop-color="#F12121"/>
<stop offset="1" stop-color="#FF5454"/>
</linearGradient>
<radialGradient id="paint1_radial_0_8842" cx="0" cy="0" r="1" gradientUnits="userSpaceOnUse" gradientTransform="translate(142 89.0001) rotate(90) scale(14 76)">
<stop offset="0.682292" stop-color="#FF5454"/>
<stop offset="0.734375" stop-color="#FF8686"/>
</radialGradient>
<clipPath id="clip0_0_8842">
<rect width="256" height="70" fill="white" transform="translate(14)"/>
</clipPath>
<clipPath id="clip1_0_8842">
<rect width="148" height="25" fill="white" transform="translate(68 79)"/>
</clipPath>
</defs>
</svg>
