<svg width="285" height="117" viewBox="0 0 285 117" fill="none" xmlns="http://www.w3.org/2000/svg">
<g clip-path="url(#clip0_0_8731)">
<path d="M15.7205 68.9998V1.79985H42.0245C46.8245 1.79985 51.1445 2.59985 54.9845 4.19985C58.8885 5.79985 62.2165 8.10385 64.9685 11.1118C67.7205 14.1198 69.8325 17.6718 71.3045 21.7678C72.7765 25.8638 73.5125 30.4078 73.5125 35.3998C73.5125 40.3918 72.7765 44.9678 71.3045 49.1278C69.8325 53.2238 67.7205 56.7758 64.9685 59.7838C62.2805 62.7278 58.9845 64.9998 55.0805 66.5998C51.1765 68.1998 46.8245 68.9998 42.0245 68.9998H15.7205ZM26.0885 60.0718L25.8005 59.0158H41.5445C44.9365 59.0158 47.9445 58.4718 50.5685 57.3838C53.2565 56.2958 55.4965 54.7598 57.2885 52.7758C59.1445 50.7278 60.5525 48.2318 61.5125 45.2878C62.4725 42.3438 62.9525 39.0478 62.9525 35.3998C62.9525 31.7518 62.4725 28.4878 61.5125 25.6078C60.5525 22.6638 59.1445 20.1678 57.2885 18.1198C55.4325 16.0718 53.1925 14.5038 50.5685 13.4158C47.9445 12.3278 44.9365 11.7838 41.5445 11.7838H25.5125L26.0885 10.9198V60.0718ZM78.65 68.9998L104.666 1.79985H115.226L141.05 68.9998H130.01L114.65 28.4878C114.458 28.0398 114.074 26.9518 113.498 25.2238C112.986 23.4958 112.378 21.5758 111.674 19.4638C110.97 17.3518 110.33 15.4318 109.754 13.7038C109.178 11.9118 108.794 10.7598 108.602 10.2478L110.81 10.1518C110.426 11.2398 109.946 12.6158 109.37 14.2798C108.858 15.9438 108.282 17.7038 107.642 19.5598C107.066 21.4158 106.49 23.1758 105.914 24.8398C105.338 26.4398 104.858 27.7838 104.474 28.8718L89.21 68.9998H78.65ZM90.17 52.2958L94.01 42.3118H124.538L128.954 52.2958H90.17ZM173.613 69.9598C169.965 69.9598 166.573 69.4798 163.437 68.5198C160.365 67.5598 157.549 66.1198 154.989 64.1998C152.493 62.2158 150.253 59.7838 148.269 56.9038L155.373 48.7438C158.509 53.2238 161.517 56.3278 164.397 58.0558C167.277 59.7838 170.701 60.6478 174.669 60.6478C177.101 60.6478 179.309 60.2638 181.293 59.4958C183.277 58.7278 184.845 57.6718 185.997 56.3278C187.149 54.9838 187.725 53.4478 187.725 51.7198C187.725 50.5678 187.533 49.4798 187.149 48.4558C186.765 47.4318 186.157 46.5038 185.325 45.6718C184.557 44.8398 183.533 44.0718 182.253 43.3678C181.037 42.6638 179.597 42.0558 177.933 41.5438C176.269 40.9678 174.349 40.4878 172.173 40.1038C168.717 39.3998 165.709 38.4718 163.149 37.3198C160.589 36.1678 158.445 34.7278 156.717 32.9998C154.989 31.2718 153.709 29.3198 152.877 27.1438C152.045 24.9038 151.629 22.4078 151.629 19.6558C151.629 16.9678 152.205 14.4718 153.357 12.1678C154.573 9.86385 156.205 7.87985 158.253 6.21585C160.365 4.48785 162.829 3.17584 165.645 2.27984C168.461 1.31985 171.501 0.839844 174.765 0.839844C178.221 0.839844 181.389 1.28785 184.269 2.18385C187.149 3.07985 189.709 4.42385 191.949 6.21585C194.189 7.94385 196.045 10.0878 197.517 12.6478L190.221 19.8478C188.941 17.7358 187.501 15.9758 185.901 14.5678C184.301 13.0958 182.541 12.0078 180.621 11.3038C178.701 10.5358 176.653 10.1518 174.477 10.1518C171.981 10.1518 169.805 10.5358 167.949 11.3038C166.093 12.0718 164.621 13.1598 163.533 14.5678C162.509 15.9118 161.997 17.5118 161.997 19.3678C161.997 20.7118 162.253 21.9598 162.765 23.1118C163.277 24.1998 164.045 25.1918 165.069 26.0878C166.157 26.9198 167.597 27.6878 169.389 28.3918C171.181 29.0318 173.325 29.6078 175.821 30.1198C179.341 30.8878 182.477 31.8798 185.229 33.0958C187.981 34.2478 190.317 35.6238 192.237 37.2238C194.157 38.8238 195.597 40.6158 196.557 42.5998C197.581 44.5838 198.093 46.7278 198.093 49.0318C198.093 53.3198 197.101 57.0318 195.117 60.1678C193.133 63.3038 190.317 65.7358 186.669 67.4638C183.021 69.1278 178.669 69.9598 173.613 69.9598ZM221.423 48.6478L220.847 37.0318L256.079 1.79985H269.711L221.423 48.6478ZM212.783 68.9998V1.79985H223.151V68.9998H212.783ZM257.327 68.9998L231.599 34.6318L239.279 28.0078L270.287 68.9998H257.327Z" fill="url(#paint0_linear_0_8731)"/>
</g>
<g clip-path="url(#clip1_0_8731)">
<path d="M69.0015 89.0001V71.2401H71.4735V78.9921L71.0415 79.2801C71.2015 78.7201 71.5135 78.2081 71.9775 77.7441C72.4415 77.2641 72.9935 76.8801 73.6335 76.5921C74.2735 76.2881 74.9295 76.1361 75.6015 76.1361C76.5615 76.1361 77.3615 76.3281 78.0015 76.7121C78.6415 77.0801 79.1214 77.6481 79.4414 78.4161C79.7614 79.1841 79.9214 80.1521 79.9214 81.3201V89.0001H77.4495V81.4881C77.4495 80.7681 77.3535 80.1761 77.1615 79.7121C76.9695 79.2321 76.6735 78.8881 76.2735 78.6801C75.8735 78.4561 75.3775 78.3601 74.7855 78.3921C74.3055 78.3921 73.8655 78.4721 73.4655 78.6321C73.0655 78.7761 72.7135 78.9841 72.4095 79.2561C72.1215 79.5281 71.8895 79.8481 71.7135 80.2161C71.5535 80.5681 71.4735 80.9521 71.4735 81.3681V89.0001H70.2495C70.0415 89.0001 69.8335 89.0001 69.6255 89.0001C69.4175 89.0001 69.2095 89.0001 69.0015 89.0001ZM88.9389 89.2401C87.7069 89.2401 86.6029 88.9601 85.6269 88.4001C84.6669 87.8241 83.9069 87.0481 83.3469 86.0721C82.7869 85.0801 82.5069 83.9521 82.5069 82.6881C82.5069 81.4241 82.7869 80.3041 83.3469 79.3281C83.9069 78.3361 84.6669 77.5601 85.6269 77.0001C86.6029 76.4241 87.7069 76.1361 88.9389 76.1361C90.1549 76.1361 91.2429 76.4241 92.2029 77.0001C93.1789 77.5601 93.9469 78.3361 94.5069 79.3281C95.0669 80.3041 95.3469 81.4241 95.3469 82.6881C95.3469 83.9521 95.0669 85.0801 94.5069 86.0721C93.9469 87.0481 93.1789 87.8241 92.2029 88.4001C91.2429 88.9601 90.1549 89.2401 88.9389 89.2401ZM88.9389 86.9841C89.6909 86.9841 90.3629 86.8001 90.9549 86.4321C91.5469 86.0481 92.0109 85.5361 92.3469 84.8961C92.6829 84.2401 92.8429 83.5041 92.8269 82.6881C92.8429 81.8561 92.6829 81.1201 92.3469 80.4801C92.0109 79.8241 91.5469 79.3121 90.9549 78.9441C90.3629 78.5761 89.6909 78.3921 88.9389 78.3921C88.1869 78.3921 87.5069 78.5841 86.8989 78.9681C86.3069 79.3361 85.8429 79.8481 85.5069 80.5041C85.1709 81.1441 85.0109 81.8721 85.0269 82.6881C85.0109 83.5041 85.1709 84.2401 85.5069 84.8961C85.8429 85.5361 86.3069 86.0481 86.8989 86.4321C87.5069 86.8001 88.1869 86.9841 88.9389 86.9841ZM97.9925 89.0001V76.4001H100.489V79.0881L100.033 79.3761C100.161 78.9601 100.361 78.5601 100.633 78.1761C100.921 77.7921 101.265 77.4561 101.665 77.1681C102.081 76.8641 102.521 76.6241 102.985 76.4481C103.465 76.2721 103.953 76.1841 104.449 76.1841C105.169 76.1841 105.801 76.3041 106.345 76.5441C106.889 76.7841 107.337 77.1441 107.689 77.6241C108.041 78.1041 108.297 78.7041 108.457 79.4241L108.073 79.3281L108.241 78.9201C108.417 78.5521 108.657 78.2081 108.961 77.8881C109.281 77.5521 109.641 77.2561 110.041 77.0001C110.441 76.7441 110.865 76.5441 111.313 76.4001C111.761 76.2561 112.201 76.1841 112.633 76.1841C113.577 76.1841 114.353 76.3761 114.961 76.7601C115.585 77.1441 116.049 77.7281 116.353 78.5121C116.673 79.2961 116.833 80.2721 116.833 81.4401V89.0001H114.337V81.5841C114.337 80.8641 114.241 80.2801 114.049 79.8321C113.873 79.3681 113.601 79.0241 113.233 78.8001C112.865 78.5761 112.393 78.4641 111.817 78.4641C111.369 78.4641 110.945 78.5441 110.545 78.7041C110.161 78.8481 109.825 79.0561 109.537 79.3281C109.249 79.6001 109.025 79.9201 108.865 80.2881C108.705 80.6401 108.625 81.0321 108.625 81.4641V89.0001H106.129V81.5361C106.129 80.8801 106.033 80.3281 105.841 79.8801C105.649 79.4161 105.369 79.0641 105.001 78.8241C104.633 78.5841 104.185 78.4641 103.657 78.4641C103.209 78.4641 102.793 78.5441 102.409 78.7041C102.025 78.8481 101.689 79.0561 101.401 79.3281C101.113 79.5841 100.889 79.8961 100.729 80.2641C100.569 80.6161 100.489 81.0001 100.489 81.4161V89.0001H97.9925ZM126.022 89.2401C124.726 89.2401 123.574 88.9681 122.566 88.4241C121.574 87.8641 120.79 87.1041 120.214 86.1441C119.654 85.1841 119.374 84.0801 119.374 82.8321C119.374 81.8401 119.534 80.9361 119.854 80.1201C120.174 79.3041 120.614 78.6001 121.174 78.0081C121.75 77.4001 122.43 76.9361 123.214 76.6161C124.014 76.2801 124.878 76.1121 125.806 76.1121C126.622 76.1121 127.382 76.2721 128.086 76.5921C128.79 76.8961 129.398 77.3201 129.91 77.8641C130.438 78.4081 130.838 79.0561 131.11 79.8081C131.398 80.5441 131.534 81.3521 131.518 82.2321L131.494 83.2881H121.198L120.646 81.3201H129.358L128.998 81.7281V81.1521C128.95 80.6241 128.774 80.1521 128.47 79.7361C128.166 79.3201 127.782 78.9921 127.318 78.7521C126.854 78.5121 126.35 78.3921 125.806 78.3921C124.942 78.3921 124.214 78.5601 123.622 78.8961C123.03 79.2161 122.582 79.6961 122.278 80.3361C121.974 80.9601 121.822 81.7361 121.822 82.6641C121.822 83.5441 122.006 84.3121 122.374 84.9681C122.742 85.6081 123.262 86.1041 123.934 86.4561C124.606 86.8081 125.382 86.9841 126.262 86.9841C126.886 86.9841 127.462 86.8801 127.99 86.6721C128.534 86.4641 129.118 86.0881 129.742 85.5441L130.99 87.2961C130.606 87.6801 130.134 88.0161 129.574 88.3041C129.03 88.5921 128.446 88.8241 127.822 89.0001C127.214 89.1601 126.614 89.2401 126.022 89.2401ZM139.557 89.2401C138.389 89.2401 137.341 88.9521 136.413 88.3761C135.501 87.8001 134.773 87.0161 134.229 86.0241C133.701 85.0321 133.437 83.9201 133.437 82.6881C133.437 81.4561 133.701 80.3441 134.229 79.3521C134.773 78.3601 135.501 77.5761 136.413 77.0001C137.341 76.4241 138.389 76.1361 139.557 76.1361C140.677 76.1361 141.693 76.3681 142.605 76.8321C143.533 77.2801 144.237 77.8961 144.717 78.6801L143.349 80.3601C143.093 79.9921 142.765 79.6561 142.365 79.3521C141.965 79.0481 141.541 78.8081 141.093 78.6321C140.645 78.4561 140.213 78.3681 139.797 78.3681C139.029 78.3681 138.341 78.5601 137.733 78.9441C137.141 79.3121 136.669 79.8241 136.317 80.4801C135.965 81.1361 135.789 81.8721 135.789 82.6881C135.789 83.5041 135.973 84.2401 136.341 84.8961C136.709 85.5361 137.197 86.0481 137.805 86.4321C138.413 86.8161 139.085 87.0081 139.821 87.0081C140.253 87.0081 140.669 86.9361 141.069 86.7921C141.485 86.6481 141.885 86.4321 142.269 86.1441C142.653 85.8561 143.013 85.5041 143.349 85.0881L144.717 86.7681C144.205 87.4881 143.469 88.0801 142.509 88.5441C141.565 89.0081 140.581 89.2401 139.557 89.2401ZM152.712 89.2401C151.48 89.2401 150.376 88.9601 149.4 88.4001C148.44 87.8241 147.68 87.0481 147.12 86.0721C146.56 85.0801 146.28 83.9521 146.28 82.6881C146.28 81.4241 146.56 80.3041 147.12 79.3281C147.68 78.3361 148.44 77.5601 149.4 77.0001C150.376 76.4241 151.48 76.1361 152.712 76.1361C153.928 76.1361 155.016 76.4241 155.976 77.0001C156.952 77.5601 157.72 78.3361 158.28 79.3281C158.84 80.3041 159.12 81.4241 159.12 82.6881C159.12 83.9521 158.84 85.0801 158.28 86.0721C157.72 87.0481 156.952 87.8241 155.976 88.4001C155.016 88.9601 153.928 89.2401 152.712 89.2401ZM152.712 86.9841C153.464 86.9841 154.136 86.8001 154.728 86.4321C155.32 86.0481 155.784 85.5361 156.12 84.8961C156.456 84.2401 156.616 83.5041 156.6 82.6881C156.616 81.8561 156.456 81.1201 156.12 80.4801C155.784 79.8241 155.32 79.3121 154.728 78.9441C154.136 78.5761 153.464 78.3921 152.712 78.3921C151.96 78.3921 151.28 78.5841 150.672 78.9681C150.08 79.3361 149.616 79.8481 149.28 80.5041C148.944 81.1441 148.784 81.8721 148.8 82.6881C148.784 83.5041 148.944 84.2401 149.28 84.8961C149.616 85.5361 150.08 86.0481 150.672 86.4321C151.28 86.8001 151.96 86.9841 152.712 86.9841ZM161.766 89.0001V76.4001H164.262V79.0881L163.806 79.3761C163.934 78.9601 164.134 78.5601 164.406 78.1761C164.694 77.7921 165.038 77.4561 165.438 77.1681C165.854 76.8641 166.294 76.6241 166.758 76.4481C167.238 76.2721 167.726 76.1841 168.222 76.1841C168.942 76.1841 169.574 76.3041 170.118 76.5441C170.662 76.7841 171.11 77.1441 171.462 77.6241C171.814 78.1041 172.07 78.7041 172.23 79.4241L171.846 79.3281L172.014 78.9201C172.19 78.5521 172.43 78.2081 172.734 77.8881C173.054 77.5521 173.414 77.2561 173.814 77.0001C174.214 76.7441 174.638 76.5441 175.086 76.4001C175.534 76.2561 175.974 76.1841 176.406 76.1841C177.35 76.1841 178.126 76.3761 178.734 76.7601C179.358 77.1441 179.822 77.7281 180.126 78.5121C180.446 79.2961 180.606 80.2721 180.606 81.4401V89.0001H178.11V81.5841C178.11 80.8641 178.014 80.2801 177.822 79.8321C177.646 79.3681 177.374 79.0241 177.006 78.8001C176.638 78.5761 176.166 78.4641 175.59 78.4641C175.142 78.4641 174.718 78.5441 174.318 78.7041C173.934 78.8481 173.598 79.0561 173.31 79.3281C173.022 79.6001 172.798 79.9201 172.638 80.2881C172.478 80.6401 172.398 81.0321 172.398 81.4641V89.0001H169.902V81.5361C169.902 80.8801 169.806 80.3281 169.614 79.8801C169.422 79.4161 169.142 79.0641 168.774 78.8241C168.406 78.5841 167.958 78.4641 167.43 78.4641C166.982 78.4641 166.566 78.5441 166.182 78.7041C165.798 78.8481 165.462 79.0561 165.174 79.3281C164.886 79.5841 164.662 79.8961 164.502 80.2641C164.342 80.6161 164.262 81.0001 164.262 81.4161V89.0001H161.766ZM184.324 89.0001V76.4001H186.796V89.0001H184.324ZM185.524 73.6161C184.996 73.6161 184.588 73.4801 184.3 73.2081C184.012 72.9361 183.868 72.5521 183.868 72.0561C183.868 71.5921 184.012 71.2161 184.3 70.9281C184.604 70.6401 185.012 70.4961 185.524 70.4961C186.052 70.4961 186.46 70.6321 186.748 70.9041C187.036 71.1761 187.18 71.5601 187.18 72.0561C187.18 72.5201 187.028 72.8961 186.724 73.1841C186.436 73.4721 186.036 73.6161 185.524 73.6161ZM190.595 89.0001V76.4001H193.067V78.9921L192.635 79.2801C192.795 78.7201 193.107 78.2081 193.571 77.7441C194.035 77.2641 194.587 76.8801 195.227 76.5921C195.867 76.2881 196.523 76.1361 197.195 76.1361C198.155 76.1361 198.955 76.3281 199.595 76.7121C200.235 77.0801 200.715 77.6481 201.035 78.4161C201.355 79.1841 201.515 80.1521 201.515 81.3201V89.0001H199.043V81.4881C199.043 80.7681 198.947 80.1761 198.755 79.7121C198.563 79.2321 198.267 78.8881 197.867 78.6801C197.467 78.4561 196.971 78.3601 196.379 78.3921C195.899 78.3921 195.459 78.4721 195.059 78.6321C194.659 78.7761 194.307 78.9841 194.003 79.2561C193.715 79.5281 193.483 79.8481 193.307 80.2161C193.147 80.5681 193.067 80.9521 193.067 81.3681V89.0001H191.843C191.635 89.0001 191.427 89.0001 191.219 89.0001C191.011 89.0001 190.803 89.0001 190.595 89.0001ZM210.509 94.5201C209.613 94.5201 208.717 94.3761 207.821 94.0881C206.941 93.8161 206.229 93.4561 205.685 93.0081L206.597 91.0881C206.917 91.3281 207.293 91.5361 207.725 91.7121C208.157 91.9041 208.613 92.0481 209.093 92.1441C209.573 92.2561 210.045 92.3121 210.509 92.3121C211.389 92.3121 212.125 92.1681 212.717 91.8801C213.309 91.5921 213.757 91.1681 214.061 90.6081C214.365 90.0481 214.517 89.3521 214.517 88.5201V86.0961L214.781 86.2641C214.701 86.7601 214.437 87.2401 213.989 87.7041C213.557 88.1521 213.013 88.5201 212.357 88.8081C211.701 89.0961 211.029 89.2401 210.341 89.2401C209.141 89.2401 208.069 88.9601 207.125 88.4001C206.197 87.8241 205.461 87.0481 204.917 86.0721C204.373 85.0801 204.101 83.9521 204.101 82.6881C204.101 81.4241 204.365 80.3041 204.893 79.3281C205.437 78.3361 206.173 77.5601 207.101 77.0001C208.045 76.4241 209.101 76.1361 210.269 76.1361C210.749 76.1361 211.213 76.2001 211.661 76.3281C212.109 76.4401 212.525 76.6081 212.909 76.8321C213.293 77.0401 213.637 77.2721 213.941 77.5281C214.245 77.7841 214.493 78.0561 214.685 78.3441C214.877 78.6321 214.997 78.9041 215.045 79.1601L214.517 79.3521V76.4001H216.989V88.2321C216.989 89.2401 216.837 90.1281 216.533 90.8961C216.245 91.6801 215.821 92.3361 215.261 92.8641C214.701 93.4081 214.021 93.8161 213.221 94.0881C212.421 94.3761 211.517 94.5201 210.509 94.5201ZM210.605 86.9601C211.389 86.9601 212.085 86.7761 212.693 86.4081C213.301 86.0401 213.773 85.5361 214.109 84.8961C214.445 84.2561 214.613 83.5201 214.613 82.6881C214.613 81.8561 214.437 81.1201 214.085 80.4801C213.749 79.8241 213.277 79.3121 212.669 78.9441C212.077 78.5761 211.389 78.3921 210.605 78.3921C209.837 78.3921 209.149 78.5841 208.541 78.9681C207.949 79.3361 207.477 79.8481 207.125 80.5041C206.789 81.1441 206.621 81.8721 206.621 82.6881C206.621 83.5041 206.789 84.2401 207.125 84.8961C207.477 85.5361 207.949 86.0401 208.541 86.4081C209.149 86.7761 209.837 86.9601 210.605 86.9601Z" fill="url(#paint1_radial_0_8731)"/>
</g>
<defs>
<linearGradient id="paint0_linear_0_8731" x1="140" y1="-9.00015" x2="140" y2="73.9998" gradientUnits="userSpaceOnUse">
<stop offset="0.0416667" stop-color="#690000"/>
<stop offset="0.21875" stop-color="#8B0000"/>
<stop offset="0.411458" stop-color="#AD0303"/>
<stop offset="0.614583" stop-color="#CF1010"/>
<stop offset="0.802083" stop-color="#F12121"/>
<stop offset="1" stop-color="#FF5454"/>
</linearGradient>
<radialGradient id="paint1_radial_0_8731" cx="0" cy="0" r="1" gradientUnits="userSpaceOnUse" gradientTransform="translate(143 80.0001) rotate(90) scale(14 76)">
<stop offset="0.682292" stop-color="#FF5454"/>
<stop offset="0.734375" stop-color="#FF8686"/>
</radialGradient>
<clipPath id="clip0_0_8731">
<rect width="256" height="70" fill="white" transform="translate(15)"/>
</clipPath>
<clipPath id="clip1_0_8731">
<rect width="148" height="25" fill="white" transform="translate(69 70)"/>
</clipPath>
</defs>
</svg>
