<svg width="24" height="25" viewBox="0 0 24 25" fill="none" xmlns="http://www.w3.org/2000/svg">
<path fill-rule="evenodd" clip-rule="evenodd" d="M7.99992 14.5C7.99992 12.2908 9.79078 10.5 11.9999 10.5C14.2091 10.5 15.9999 12.2908 15.9999 14.5C15.9999 16.7091 14.2091 18.5 11.9999 18.5C9.79078 18.5 7.99992 16.7091 7.99992 14.5ZM11.9999 12.5C10.8954 12.5 9.99992 13.3954 9.99992 14.5C9.99992 15.6045 10.8954 16.5 11.9999 16.5C13.1045 16.5 13.9999 15.6045 13.9999 14.5C13.9999 13.3954 13.1045 12.5 11.9999 12.5Z" fill="black"/>
<path fill-rule="evenodd" clip-rule="evenodd" d="M11.9999 1.6875L23.4095 11.3856L22.1142 12.9095L20.9999 11.9624V22.4999H2.99992V11.9624L1.88563 12.9095L0.590332 11.3856L11.9999 1.6875ZM4.99992 10.2624V20.4999H18.9999V10.2624L11.9999 4.31238L4.99992 10.2624Z" fill="black"/>
</svg>
