<svg width="18" height="18" viewBox="0 0 18 18" fill="none" xmlns="http://www.w3.org/2000/svg">
<path d="M10.6886 18H7.31201C7.10045 18 6.89523 17.9299 6.73039 17.8012C6.56555 17.6726 6.451 17.4931 6.40572 17.2926L6.02818 15.597C5.52453 15.3829 5.04697 15.1151 4.60428 14.7987L2.90023 15.3252C2.69853 15.3876 2.4809 15.3812 2.28348 15.307C2.08605 15.2329 1.92071 15.0954 1.81491 14.9175L0.12293 12.0816C0.018243 11.9035 -0.0210538 11.6962 0.0114686 11.4937C0.0439909 11.2911 0.146407 11.1052 0.301961 10.9665L1.62382 9.7965C1.56371 9.2665 1.56371 8.7317 1.62382 8.2017L0.301961 7.0344C0.146186 6.89559 0.0436313 6.70957 0.0111037 6.5068C-0.021424 6.30404 0.0180055 6.09657 0.12293 5.9184L1.8112 3.0807C1.917 2.90278 2.08234 2.76533 2.27977 2.69117C2.47719 2.61701 2.69482 2.61059 2.89652 2.673L4.60057 3.1995C4.82691 3.0375 5.06252 2.8863 5.30556 2.7495C5.54025 2.6217 5.78143 2.5056 6.02818 2.4021L6.40665 0.7083C6.45171 0.507778 6.56605 0.328219 6.73071 0.199394C6.89538 0.0705688 7.10048 0.000215969 7.31201 0H10.6886C10.9001 0.000215969 11.1052 0.0705688 11.2699 0.199394C11.4345 0.328219 11.5489 0.507778 11.5939 0.7083L11.9761 2.403C12.4791 2.61834 12.9565 2.88601 13.4 3.2013L15.105 2.6748C15.3065 2.61262 15.524 2.61915 15.7212 2.6933C15.9184 2.76746 16.0836 2.90478 16.1894 3.0825L17.8776 5.9202C18.0928 6.2865 18.0186 6.75 17.6986 7.0353L16.3767 8.2053C16.4369 8.7353 16.4369 9.2701 16.3767 9.8001L17.6986 10.9701C18.0186 11.2563 18.0928 11.7189 17.8776 12.0852L16.1894 14.9229C16.0836 15.1008 15.9182 15.2383 15.7208 15.3124C15.5234 15.3866 15.3057 15.393 15.104 15.3306L13.4 14.8041C12.9576 15.1203 12.4804 15.3878 11.977 15.6015L11.5939 17.2926C11.5487 17.493 11.4343 17.6723 11.2696 17.801C11.105 17.9296 10.9 17.9998 10.6886 18ZM8.99658 5.4C8.01249 5.4 7.06871 5.77928 6.37286 6.45441C5.67701 7.12955 5.28608 8.04522 5.28608 9C5.28608 9.95478 5.67701 10.8705 6.37286 11.5456C7.06871 12.2207 8.01249 12.6 8.99658 12.6C9.98066 12.6 10.9244 12.2207 11.6203 11.5456C12.3161 10.8705 12.7071 9.95478 12.7071 9C12.7071 8.04522 12.3161 7.12955 11.6203 6.45441C10.9244 5.77928 9.98066 5.4 8.99658 5.4Z" fill="#A4A4A4"/>
</svg>
