<svg width="22" height="22" viewBox="0 0 22 22" fill="none" xmlns="http://www.w3.org/2000/svg">
<path fill-rule="evenodd" clip-rule="evenodd" d="M5.5 5C5.5 2.23858 7.96243 0 11 0C14.0376 0 16.5 2.23858 16.5 5C16.5 7.76142 14.0376 10 11 10C7.96243 10 5.5 7.76142 5.5 5ZM11 2C9.17746 2 7.7 3.34315 7.7 5C7.7 6.65685 9.17746 8 11 8C12.8225 8 14.3 6.65685 14.3 5C14.3 3.34315 12.8225 2 11 2Z" fill="black"/>
<path fill-rule="evenodd" clip-rule="evenodd" d="M0 21C0 15.4772 4.92487 11 11 11C17.0751 11 22 15.4772 22 21V22H0V21ZM2.26808 20H19.7319C19.1906 16.0537 15.4876 13 11 13C6.51242 13 2.80939 16.0537 2.26808 20Z" fill="black"/>
</svg>
