<svg width="24" height="24" viewBox="0 0 24 24" fill="none" xmlns="http://www.w3.org/2000/svg">
<path d="M7.91669 4H11.3468L13.4521 6H15.2851L17.3904 4H20.8205L23.4139 6.46375L22.0364 7.91375L20.022 6H18.1889L16.0837 8H12.6535L10.5483 6H8.71524L6.60998 8H3.17985L0.586426 5.53625L1.96392 4.08625L3.9784 6H5.81143L7.91669 4Z" fill="black"/>
<path d="M7.91669 10H11.3468L13.4521 12H15.2851L17.3904 10H20.8205L23.4139 12.4638L22.0364 13.9137L20.022 12H18.1889L16.0837 14H12.6535L10.5483 12H8.71524L6.60998 14H3.17985L0.586426 11.5363L1.96392 10.0863L3.9784 12H5.81143L7.91669 10Z" fill="black"/>
<path d="M7.91669 16H11.3468L13.4521 18H15.2851L17.3904 16H20.8205L23.4139 18.4637L22.0364 19.9137L20.022 18H18.1889L16.0837 20H12.6535L10.5483 18H8.71524L6.60998 20H3.17985L0.586426 17.5363L1.96392 16.0863L3.9784 18H5.81143L7.91669 16Z" fill="black"/>
</svg>
