<svg width="24" height="25" viewBox="0 0 24 25" fill="none" xmlns="http://www.w3.org/2000/svg">
<path d="M11.9999 6.5C8.41365 6.5 5.14438 7.84716 2.66685 10.0646L1.92172 10.7315L0.587891 9.24125L1.33303 8.57433C4.16306 6.04138 7.90269 4.5 11.9999 4.5C16.0972 4.5 19.8368 6.04138 22.6669 8.57433L23.412 9.24125L22.0782 10.7315L21.333 10.0646C18.8555 7.84716 15.5862 6.5 11.9999 6.5Z" fill="black"/>
<path d="M12.0002 11.5C9.6683 11.5 7.54559 12.3855 5.94627 13.8403L5.20652 14.5132L3.86074 13.0337L4.60049 12.3608C6.55359 10.5842 9.15142 9.5 12.0002 9.5C14.8489 9.5 17.4467 10.5842 19.3998 12.3608L20.1396 13.0337L18.7938 14.5132L18.054 13.8403C16.4547 12.3855 14.332 11.5 12.0002 11.5Z" fill="black"/>
<path d="M12 16.5C10.9633 16.5 10.0208 16.8931 9.30955 17.54L8.5698 18.2129L7.22403 16.7334L7.96377 16.0605C9.02877 15.0918 10.4465 14.5 12 14.5C13.5536 14.5 14.9713 15.0918 16.0363 16.0605L16.7761 16.7334L15.4303 18.2129L14.6905 17.54C13.9793 16.8931 13.0368 16.5 12 16.5Z" fill="black"/>
<path d="M10.9999 19.5H13.0099V21.5H10.9999V19.5Z" fill="black"/>
</svg>
