<svg width="25" height="26" viewBox="0 0 25 26" fill="none" xmlns="http://www.w3.org/2000/svg">
<path d="M15.7723 25.8204H9.28697C3.3541 25.8204 0.832031 23.2863 0.832031 17.3654V11.973C0.832031 11.4806 1.24037 11.0723 1.73277 11.0723C2.22517 11.0723 2.63351 11.4806 2.63351 11.973V17.3654C2.63351 22.2775 4.37494 24.0189 9.28697 24.0189H15.7603C20.6723 24.0189 22.4138 22.2775 22.4138 17.3654V11.973C22.4138 11.4806 22.8221 11.0723 23.3145 11.0723C23.8069 11.0723 24.2153 11.4806 24.2153 11.973V17.3654C24.2273 23.2863 21.6932 25.8204 15.7723 25.8204Z" fill="#2F80ED"/>
<path d="M12.5283 13.8113C11.2072 13.8113 10.0062 13.2949 9.15355 12.3461C8.30085 11.3974 7.90452 10.1603 8.03663 8.83925L8.8413 0.81667C8.88934 0.360296 9.27366 0 9.74204 0H15.3506C15.819 0 16.2033 0.348286 16.2513 0.81667L17.056 8.83925C17.1881 10.1603 16.7918 11.3974 15.9391 12.3461C15.0504 13.2949 13.8494 13.8113 12.5283 13.8113ZM10.5467 1.80148L9.8261 9.0194C9.74203 9.82406 9.98224 10.5807 10.4866 11.1331C11.5075 12.2621 13.5491 12.2621 14.57 11.1331C15.0744 10.5687 15.3146 9.81205 15.2305 9.0194L14.5099 1.80148H10.5467Z" fill="#2F80ED"/>
<path d="M20.1091 13.8113C17.6711 13.8113 15.4973 11.8417 15.2451 9.41573L14.4044 0.996818C14.3804 0.744611 14.4645 0.492404 14.6326 0.300246C14.8008 0.108089 15.0409 0 15.3052 0H18.9682C22.4991 0 24.1444 1.47721 24.6368 5.10419L24.9731 8.44293C25.1172 9.86009 24.6849 11.2052 23.7601 12.226C22.8353 13.2469 21.5383 13.8113 20.1091 13.8113ZM16.302 1.80148L17.0466 9.23558C17.2027 10.7368 18.5959 12.0099 20.1091 12.0099C21.0219 12.0099 21.8385 11.6616 22.427 11.025C23.0035 10.3885 23.2677 9.53583 23.1836 8.62308L22.8474 5.32037C22.475 2.60614 21.5983 1.80148 18.9682 1.80148H16.302Z" fill="#2F80ED"/>
<path d="M4.89118 13.8113C3.46201 13.8113 2.16494 13.2469 1.24018 12.226C0.315425 11.2052 -0.11693 9.86009 0.0271887 8.44293L0.351455 5.14022C0.855869 1.47721 2.50122 0 6.03213 0H9.69512C9.94733 0 10.1875 0.108089 10.3676 0.300246C10.5478 0.492404 10.6198 0.744611 10.5958 0.996818L9.75517 9.41573C9.50296 11.8417 7.32918 13.8113 4.89118 13.8113ZM6.03213 1.80148C3.40196 1.80148 2.52524 2.59413 2.14092 5.34439L1.81666 8.62308C1.72058 9.53583 1.9968 10.3885 2.57328 11.025C3.14975 11.6616 3.96642 12.0099 4.89118 12.0099C6.40442 12.0099 7.80958 10.7368 7.95369 9.23558L8.69832 1.80148H6.03213Z" fill="#2F80ED"/>
<path d="M15.5346 25.8201H9.52965C9.03724 25.8201 8.62891 25.4117 8.62891 24.9193V21.9169C8.62891 19.3948 10.01 18.0137 12.5321 18.0137C15.0542 18.0137 16.4353 19.3948 16.4353 21.9169V24.9193C16.4353 25.4117 16.027 25.8201 15.5346 25.8201ZM10.4304 24.0186H14.6338V21.9169C14.6338 20.4036 14.0454 19.8152 12.5321 19.8152C11.0189 19.8152 10.4304 20.4036 10.4304 21.9169V24.0186Z" fill="#2F80ED"/>
</svg>
