<svg width="24" height="24" viewBox="0 0 24 24" fill="none" xmlns="http://www.w3.org/2000/svg">
<path d="M18.3239 2.03995e-08C19.0837 -8.40304e-05 19.8152 0.259568 20.3706 0.72648C20.9259 1.19339 21.2638 1.83274 21.3158 2.51533L21.3224 2.69894V14.8531C21.1625 14.9491 21.0092 15.062 20.868 15.1892L16.325 19.279L15.1149 18.1869C14.5828 17.7065 13.8688 17.4249 13.116 17.3985H16.325C16.5901 17.3985 16.8443 17.3036 17.0317 17.1349C17.2192 16.9661 17.3245 16.7371 17.3245 16.4984C17.3245 16.2597 17.2192 16.0308 17.0317 15.862C16.8443 15.6932 16.5901 15.5984 16.325 15.5984H9.65639C9.39131 15.5984 9.13708 15.6932 8.94964 15.862C8.7622 16.0308 8.6569 16.2597 8.6569 16.4984C8.6569 16.7371 8.7622 16.9661 8.94964 17.1349C9.13708 17.3036 9.39131 17.3985 9.65639 17.3985H12.8721C12.2902 17.4199 11.7278 17.5935 11.2536 17.8981C10.7795 18.2027 10.4141 18.625 10.2021 19.1135C9.99005 19.6019 9.94061 20.1354 10.0598 20.6488C10.1789 21.1622 10.4616 21.6332 10.8731 22.0043L13.0826 24H2.99846C2.23868 24.0001 1.5072 23.7404 0.951842 23.2735C0.396483 22.8066 0.0586661 22.1673 0.00666343 21.4847L2.26534e-08 21.2999V2.70013C-9.33147e-05 2.01595 0.288246 1.35724 0.806746 0.857139C1.32525 0.357035 2.03524 0.0528292 2.79324 0.00600046L2.99846 2.03995e-08H18.3239ZM6.66325 6.90034C6.66325 6.58207 6.52285 6.27683 6.27293 6.05177C6.02301 5.82672 5.68404 5.70028 5.3306 5.70028C4.97716 5.70028 4.6382 5.82672 4.38828 6.05177C4.13836 6.27683 3.99795 6.58207 3.99795 6.90034C3.99795 7.21862 4.13836 7.52386 4.38828 7.74892C4.6382 7.97397 4.97716 8.10041 5.3306 8.10041C5.68404 8.10041 6.02301 7.97397 6.27293 7.74892C6.52285 7.52386 6.66325 7.21862 6.66325 6.90034ZM9.65639 5.9991C9.39131 5.9991 9.13708 6.09393 8.94964 6.26272C8.7622 6.43151 8.6569 6.66044 8.6569 6.89915C8.6569 7.13785 8.7622 7.36678 8.94964 7.53557C9.13708 7.70436 9.39131 7.79919 9.65639 7.79919H16.325C16.5901 7.79919 16.8443 7.70436 17.0317 7.53557C17.2192 7.36678 17.3245 7.13785 17.3245 6.89915C17.3245 6.66044 17.2192 6.43151 17.0317 6.26272C16.8443 6.09393 16.5901 5.9991 16.325 5.9991H9.65639ZM8.6569 11.6994C8.6569 12.1962 9.10467 12.5994 9.65639 12.5994H16.325C16.4562 12.5994 16.5862 12.5761 16.7075 12.5309C16.8287 12.4857 16.9389 12.4194 17.0317 12.3358C17.1245 12.2522 17.1982 12.153 17.2484 12.0438C17.2986 11.9346 17.3245 11.8176 17.3245 11.6994C17.3245 11.5812 17.2986 11.4642 17.2484 11.355C17.1982 11.2458 17.1245 11.1465 17.0317 11.063C16.9389 10.9794 16.8287 10.9131 16.7075 10.8679C16.5862 10.8226 16.4562 10.7993 16.325 10.7993H9.65639C9.39131 10.7993 9.13708 10.8942 8.94964 11.063C8.7622 11.2317 8.6569 11.4607 8.6569 11.6994ZM6.66325 11.6994C6.66325 11.3811 6.52285 11.0759 6.27293 10.8508C6.02301 10.6258 5.68404 10.4993 5.3306 10.4993C4.97716 10.4993 4.6382 10.6258 4.38828 10.8508C4.13836 11.0759 3.99795 11.3811 3.99795 11.6994C3.99795 12.0177 4.13836 12.3229 4.38828 12.548C4.6382 12.773 4.97716 12.8994 5.3306 12.8994C5.68404 12.8994 6.02301 12.773 6.27293 12.548C6.52285 12.3229 6.66325 12.0177 6.66325 11.6994ZM6.66325 16.4972C6.66325 16.179 6.52285 15.8737 6.27293 15.6487C6.02301 15.4236 5.68404 15.2972 5.3306 15.2972C4.97716 15.2972 4.6382 15.4236 4.38828 15.6487C4.13836 15.8737 3.99795 16.179 3.99795 16.4972C3.99795 16.8155 4.13836 17.1207 4.38828 17.3458C4.6382 17.5709 4.97716 17.6973 5.3306 17.6973C5.68404 17.6973 6.02301 17.5709 6.27293 17.3458C6.52285 17.1207 6.66325 16.8155 6.66325 16.4972ZM16.325 21.8267L22.2819 16.4624C22.3742 16.3765 22.4845 16.308 22.6065 16.2609C22.7284 16.2137 22.8596 16.189 22.9923 16.188C23.125 16.187 23.2566 16.2098 23.3794 16.2551C23.5022 16.3005 23.6138 16.3673 23.7076 16.4519C23.8014 16.5364 23.8756 16.6369 23.9257 16.7476C23.9759 16.8582 24.0012 16.9767 24 17.0962C23.9987 17.2158 23.9711 17.3338 23.9187 17.4436C23.8662 17.5534 23.79 17.6527 23.6945 17.7357L17.0313 23.736C16.8439 23.9045 16.5898 23.9992 16.325 23.9992C16.0601 23.9992 15.8061 23.9045 15.6187 23.736L12.287 20.7346C12.1105 20.564 12.0144 20.3384 12.0189 20.1052C12.0235 19.872 12.1284 19.6495 12.3115 19.4846C12.4947 19.3197 12.7417 19.2253 13.0006 19.2212C13.2596 19.217 13.5102 19.3036 13.6997 19.4626L16.325 21.8267Z" fill="#A4A4A4"/>
</svg>
