<svg width="28" height="24" viewBox="0 0 28 24" fill="none" xmlns="http://www.w3.org/2000/svg">
<path d="M17.2348 15C13.9479 15 7.38636 16.995 7.38636 21V24H27.0833V21C27.0833 16.995 20.5218 15 17.2348 15ZM6.1553 9V4.5H3.69318V9H0V12H3.69318V16.5H6.1553V12H9.84848V9M17.2348 12C18.5408 12 19.7933 11.3679 20.7168 10.2426C21.6403 9.11742 22.1591 7.5913 22.1591 6C22.1591 4.4087 21.6403 2.88258 20.7168 1.75736C19.7933 0.632141 18.5408 0 17.2348 0C15.9289 0 14.6764 0.632141 13.7529 1.75736C12.8294 2.88258 12.3106 4.4087 12.3106 6C12.3106 7.5913 12.8294 9.11742 13.7529 10.2426C14.6764 11.3679 15.9289 12 17.2348 12Z" fill="#A4A4A4"/>
</svg>
