<svg width="207" height="104" viewBox="0 0 207 104" fill="none" xmlns="http://www.w3.org/2000/svg">
<path d="M206.25 0.250008C206.25 13.7762 203.586 27.1699 198.41 39.6664C193.233 52.1629 185.646 63.5176 176.082 73.082C166.518 82.6464 155.163 90.2334 142.666 95.4096C130.17 100.586 116.776 103.25 103.25 103.25C89.7238 103.25 76.3301 100.586 63.8336 95.4096C51.3371 90.2334 39.9824 82.6464 30.418 73.082C20.8536 63.5176 13.2666 52.1629 8.0904 39.6664C2.91417 27.1699 0.249999 13.7762 0.25 0.25H24.2989C24.2989 10.618 26.341 20.8845 30.3087 30.4633C34.2764 40.0421 40.0919 48.7456 47.4232 56.0769C54.7544 63.4081 63.4579 69.2236 73.0367 73.1913C82.6155 77.159 92.882 79.2011 103.25 79.2011C113.618 79.2011 123.884 77.159 133.463 73.1913C143.042 69.2236 151.746 63.4081 159.077 56.0769C166.408 48.7456 172.224 40.0421 176.191 30.4633C180.159 20.8845 182.201 10.618 182.201 0.250008H206.25Z" fill="#00FFF5"/>
</svg>
