<svg width="22" height="26" viewBox="0 0 22 26" fill="none" xmlns="http://www.w3.org/2000/svg">
<path d="M11.0005 13.5439C7.26707 13.5439 4.22852 10.5054 4.22852 6.77197C4.22852 3.03855 7.26707 0 11.0005 0C14.7339 0 17.7725 3.03855 17.7725 6.77197C17.7725 10.5054 14.7339 13.5439 11.0005 13.5439ZM11.0005 1.7666C8.24459 1.7666 5.99512 4.01607 5.99512 6.77197C5.99512 9.52787 8.24459 11.7773 11.0005 11.7773C13.7564 11.7773 16.0059 9.52787 16.0059 6.77197C16.0059 4.01607 13.7564 1.7666 11.0005 1.7666Z" fill="#A4A4A4"/>
<path d="M21.1167 25.3213C20.6338 25.3213 20.2334 24.9209 20.2334 24.438C20.2334 20.3748 16.0879 17.0771 11.0001 17.0771C5.91221 17.0771 1.7666 20.3748 1.7666 24.438C1.7666 24.9209 1.36617 25.3213 0.883301 25.3213C0.40043 25.3213 0 24.9209 0 24.438C0 19.4091 4.93469 15.3105 11.0001 15.3105C17.0654 15.3105 22 19.4091 22 24.438C22 24.9209 21.5996 25.3213 21.1167 25.3213Z" fill="#A4A4A4"/>
</svg>
