<svg width="22" height="25" viewBox="0 0 22 25" fill="none" xmlns="http://www.w3.org/2000/svg">
<path d="M10.772 13.5381C7.03855 13.5381 4 10.5009 4 6.76906C4 3.03725 7.03855 0 10.772 0C14.5054 0 17.5439 3.03725 17.5439 6.76906C17.5439 10.5009 14.5054 13.5381 10.772 13.5381ZM10.772 1.76584C8.01607 1.76584 5.7666 4.01435 5.7666 6.76906C5.7666 9.52378 8.01607 11.7723 10.772 11.7723C13.5279 11.7723 15.7773 9.52378 15.7773 6.76906C15.7773 4.01435 13.5279 1.76584 10.772 1.76584Z" fill="#2F80ED"/>
<path d="M21.1167 25.0001C20.6338 25.0001 20.2334 24.5998 20.2334 24.1172C20.2334 20.0557 16.0879 16.7595 11.0001 16.7595C5.91221 16.7595 1.7666 20.0557 1.7666 24.1172C1.7666 24.5998 1.36617 25.0001 0.883301 25.0001C0.40043 25.0001 0 24.5998 0 24.1172C0 19.0904 4.93469 14.9937 11.0001 14.9937C17.0654 14.9937 22 19.0904 22 24.1172C22 24.5998 21.5996 25.0001 21.1167 25.0001Z" fill="#2F80ED"/>
</svg>
