<svg width="26" height="24" viewBox="0 0 26 24" fill="none" xmlns="http://www.w3.org/2000/svg">
<path d="M16.5455 15C13.39 15 7.09091 16.995 7.09091 21V24H26V21C26 16.995 19.7009 15 16.5455 15ZM5.90909 9V4.5H3.54545V9H0V12H3.54545V16.5H5.90909V12H9.45455V9M16.5455 12C17.7992 12 19.0016 11.3679 19.8881 10.2426C20.7747 9.11742 21.2727 7.5913 21.2727 6C21.2727 4.4087 20.7747 2.88258 19.8881 1.75736C19.0016 0.632141 17.7992 0 16.5455 0C15.2917 0 14.0893 0.632141 13.2028 1.75736C12.3162 2.88258 11.8182 4.4087 11.8182 6C11.8182 7.5913 12.3162 9.11742 13.2028 10.2426C14.0893 11.3679 15.2917 12 16.5455 12Z" fill="#2F80ED"/>
</svg>
