<svg width="20" height="18" viewBox="0 0 20 18" fill="none" xmlns="http://www.w3.org/2000/svg">
<path d="M19.3327 8.99992C19.3327 7.71659 18.2827 6.66659 16.9993 6.66659V3.16659C16.9993 1.88325 15.9493 0.833252 14.666 0.833252H5.33268C4.04935 0.833252 2.99935 1.88325 2.99935 3.16659V6.66659C1.71602 6.66659 0.666016 7.71659 0.666016 8.99992V14.8333H2.21768L2.99935 17.1666H4.16602L4.94768 14.8333H15.0627L15.8327 17.1666H16.9993L17.781 14.8333H19.3327V8.99992ZM14.666 6.66659H11.166V3.16659H14.666V6.66659ZM5.33268 3.16659H8.83268V6.66659H5.33268V3.16659ZM2.99935 8.99992H16.9993V12.4999H2.99935V8.99992Z" fill="#00FF38"/>
</svg>
